<?xml version="1.0" standalone="no"?>
<!DOCTYPE svg PUBLIC "-//W3C//DTD SVG 20010904//EN"
 "http://www.w3.org/TR/2001/REC-SVG-20010904/DTD/svg10.dtd">
<svg version="1.0" xmlns="http://www.w3.org/2000/svg"
 width="1024.000000pt" height="1024.000000pt" viewBox="0 0 1024.000000 1024.000000"
 preserveAspectRatio="xMidYMid meet">

<g transform="translate(0.000000,1024.000000) scale(0.100000,-0.100000)"
fill="#000000" stroke="none">
<path d="M0 9170 c0 -929 2 -1076 15 -1107 19 -45 19 -52 0 -27 -13 17 -14
-12 -15 -258 0 -179 4 -278 10 -278 6 0 10 -7 10 -15 0 -8 -4 -15 -10 -15 -15
0 -14 -2809 1 -2827 9 -10 9 -19 0 -36 -8 -16 -11 -131 -9 -422 3 -364 5 -400
20 -403 23 -4 28 18 33 149 4 115 38 399 49 417 4 6 33 1 77 -14 39 -13 78
-24 86 -24 8 0 63 -12 122 -26 111 -28 171 -35 171 -22 0 5 9 3 19 -4 11 -7
18 -15 16 -18 -2 -4 28 -13 68 -20 40 -7 90 -19 112 -27 22 -9 71 -15 109 -15
77 1 92 -3 76 -23 -10 -11 -5 -12 26 -3 32 8 40 7 50 -7 10 -13 16 -14 33 -5
14 7 21 7 21 0 0 -5 -8 -10 -17 -10 -23 0 -5 -16 27 -25 19 -5 21 -4 10 4 -12
9 -11 11 8 11 12 0 22 -4 22 -8 0 -12 81 -6 112 8 16 7 24 18 21 26 -3 9 2 14
16 14 14 0 19 5 15 15 -8 20 13 45 37 45 26 0 24 10 -7 37 -22 18 -29 20 -39
9 -7 -7 -15 -26 -17 -42 -2 -21 -8 -29 -22 -29 -26 0 -30 36 -5 42 27 7 24 19
-11 44 -33 25 -31 39 5 39 13 0 27 5 31 11 4 8 -4 9 -27 4 -25 -5 -30 -4 -19
4 11 8 6 9 -20 4 -19 -4 -47 -8 -62 -8 -29 0 -37 -10 -16 -18 8 -3 8 -6 2 -6
-6 -1 -19 8 -29 19 -18 20 -18 21 3 41 12 11 22 22 22 24 0 3 -19 5 -41 5 -41
0 -41 0 -26 -23 12 -18 12 -24 1 -35 -19 -17 -24 -15 -24 12 0 13 -6 27 -12
29 -10 4 -9 8 2 16 12 9 10 11 -11 11 -14 0 -30 5 -37 12 -8 8 -15 8 -26 -1
-9 -7 -21 -11 -28 -8 -8 4 -7 6 4 6 10 1 17 4 17 9 -3 20 3 21 31 7 16 -8 37
-15 47 -15 10 0 -9 12 -42 25 -40 17 -79 25 -118 25 -32 0 -56 4 -53 9 6 8
-23 23 -74 37 -31 8 -61 34 -54 46 3 5 -6 6 -22 2 -19 -5 -25 -4 -20 5 4 6 3
11 -3 11 -5 0 -16 6 -23 13 -26 25 -64 44 -101 51 -20 4 -37 11 -37 15 0 5
-10 11 -23 15 -13 3 -41 13 -63 23 -21 9 -73 28 -114 42 -86 30 -92 41 -66
119 8 26 27 85 42 132 14 47 32 99 40 115 7 17 17 45 21 63 l8 33 110 -57
c240 -124 287 -146 294 -138 4 5 33 70 65 144 31 74 63 149 71 165 8 17 21 47
29 68 11 26 20 36 28 31 15 -9 128 -90 144 -103 6 -5 30 -21 54 -36 34 -22 44
-24 52 -13 8 10 9 9 4 -4 -6 -19 42 -51 79 -52 11 -1 20 -7 20 -14 0 -7 11
-22 25 -32 28 -22 45 -26 34 -8 -4 7 -3 8 5 4 6 -4 9 -11 6 -16 -8 -13 71 -63
86 -54 7 4 10 3 6 -3 -4 -6 4 -18 17 -26 18 -12 26 -13 36 -4 10 10 12 8 7 -5
-5 -13 -2 -15 11 -11 9 3 14 3 10 -2 -4 -4 6 -18 21 -31 33 -28 50 -32 30 -7
-12 15 -12 16 7 11 19 -5 20 -2 16 51 -3 49 -8 60 -39 89 -37 33 -53 40 -53
22 0 -5 -5 -10 -11 -10 -8 0 -7 5 2 16 11 14 9 19 -16 38 -16 11 -30 20 -31
20 -1 -1 -32 27 -69 62 -52 49 -73 63 -88 58 -16 -5 -19 -3 -13 11 7 20 -32
57 -53 50 -9 -4 -11 0 -7 12 4 10 4 15 1 11 -3 -3 -27 16 -53 43 -35 36 -52
47 -67 43 -15 -4 -16 -3 -6 4 10 7 10 11 1 17 -7 4 -17 1 -22 -6 -8 -11 -9
-10 -4 4 4 13 -12 35 -58 80 -35 34 -78 73 -96 87 -18 14 -38 30 -44 35 -6 6
-40 35 -75 65 -90 76 -121 106 -121 115 0 4 29 52 65 106 36 55 65 101 65 104
0 5 104 165 119 181 5 7 7 15 4 18 -4 3 -3 6 0 6 8 0 94 -76 202 -179 44 -42
103 -96 131 -121 143 -127 226 -201 289 -260 39 -36 97 -89 130 -119 112 -101
280 -256 370 -341 351 -334 409 -385 425 -375 6 4 7 -2 2 -15 -14 -38 -329
-155 -664 -246 l-68 -19 0 -95 0 -95 -113 -113 c-62 -61 -118 -112 -125 -112
-8 0 -10 -5 -6 -12 5 -7 2 -9 -9 -5 -12 4 -14 2 -10 -11 6 -15 5 -16 -12 -2
-17 14 -18 13 -12 -3 5 -13 -2 -28 -25 -50 -17 -18 -36 -32 -42 -32 -6 0 -11
-5 -11 -11 0 -34 -337 -353 -566 -536 -220 -176 -364 -261 -664 -393 -90 -40
-141 -67 -143 -78 -2 -9 2 -17 9 -17 21 0 352 150 434 197 95 54 258 155 265
164 3 4 19 15 35 25 40 25 112 84 194 161 64 60 86 73 60 35 -27 -38 -214
-245 -294 -325 -52 -51 -163 -132 -171 -124 -3 2 47 53 110 112 114 107 159
161 89 108 -20 -15 -84 -68 -142 -116 -126 -105 -235 -179 -264 -181 -21 -1
-22 -4 -19 -123 l4 -123 -25 -9 c-14 -5 -28 -15 -32 -20 -13 -23 -21 -9 -22
39 -1 48 -26 109 -49 117 -7 2 -15 -8 -18 -23 -4 -14 -16 -39 -28 -54 -16 -22
-19 -36 -14 -64 6 -29 4 -36 -8 -36 -9 0 -18 11 -21 25 -17 82 -13 76 -53 73
l-37 -3 -3 -219 c-2 -186 0 -223 13 -243 15 -22 15 -27 0 -49 -11 -18 -15 -42
-13 -87 3 -54 5 -62 23 -62 18 0 20 6 17 50 -2 37 2 56 17 75 l20 25 10 -28
c6 -16 11 -42 11 -58 0 -30 6 -34 29 -20 11 7 12 25 6 85 -6 73 -6 76 14 76
16 0 21 6 21 28 0 15 5 34 10 42 8 13 10 12 10 -2 0 -10 4 -18 10 -18 5 0 25
-25 45 -55 24 -39 35 -68 36 -98 2 -32 3 -35 6 -12 2 17 6 41 9 55 6 23 7 24
14 5 5 -11 9 -33 9 -48 1 -16 8 -35 16 -43 21 -21 19 -57 -6 -115 l-22 -49
-31 44 c-33 48 -61 66 -102 66 -43 0 -62 -17 -69 -62 -3 -24 -11 -53 -17 -65
-9 -18 -8 -27 7 -43 9 -10 15 -26 12 -34 -4 -9 -2 -18 3 -21 6 -4 10 -14 10
-25 0 -10 6 -20 14 -23 8 -3 13 -14 11 -24 -2 -10 -4 -29 -5 -43 -2 -24 -3
-23 -10 5 -6 22 -8 25 -10 10 -3 -25 -3 -26 6 -50 4 -11 3 -16 -1 -12 -5 4
-17 -7 -28 -25 -10 -18 -16 -25 -13 -15 3 10 -1 31 -9 48 -14 26 -14 29 0 29
10 0 15 -10 16 -27 l0 -28 12 24 c9 19 9 25 -1 29 -6 2 -12 11 -13 20 0 12 -2
13 -6 4 -4 -10 -11 -8 -30 10 -19 18 -26 20 -32 9 -7 -11 -9 -11 -14 0 -3 8
-6 -437 -6 -988 l-1 -1003 5120 0 5120 0 0 938 c0 822 -2 940 -15 959 -9 12
-15 26 -14 30 3 20 -2 23 -22 13 -31 -17 -140 -19 -170 -4 -15 7 -29 10 -32 7
-4 -3 -14 0 -23 8 -10 8 -39 14 -68 14 -41 0 -51 3 -54 19 -2 10 2 22 10 27 9
6 9 9 1 9 -7 0 -17 -8 -22 -19 -9 -16 -47 -33 -68 -30 -4 0 -10 -8 -14 -18 -7
-16 -8 -16 -8 3 -1 12 -8 28 -17 35 -15 12 -16 11 -10 -11 l8 -25 -18 25 c-10
14 -24 29 -31 33 -9 5 -11 16 -7 29 4 15 3 18 -7 13 -9 -6 -11 -3 -6 9 4 9 3
15 -2 12 -10 -6 -35 43 -33 64 1 8 -1 10 -4 4 -4 -9 -12 -8 -32 1 -15 8 -51
15 -79 16 -48 2 -53 5 -53 26 0 32 -23 85 -44 102 -22 18 -109 20 -129 3 -20
-17 -30 -74 -17 -106 6 -17 6 -26 0 -26 -14 0 -12 -26 3 -42 15 -15 12 -26
-22 -81 l-24 -38 -17 38 c-9 21 -14 39 -10 41 16 6 -5 60 -42 109 -22 28 -44
53 -49 55 -6 2 -17 35 -26 73 -8 39 -25 83 -36 99 -21 30 -28 68 -15 89 10 16
11 13 46 -78 37 -98 58 -112 49 -33 -4 30 -14 74 -22 98 -15 43 -15 43 4 26
11 -10 35 -49 53 -87 18 -38 39 -69 46 -69 16 0 15 8 -8 92 -27 98 -26 120 3
116 32 -4 36 -16 30 -71 -6 -47 -5 -49 18 -45 20 3 25 11 32 56 5 28 13 52 17
52 5 0 6 7 3 17 -4 11 -3 14 5 9 8 -5 10 -2 6 8 -3 9 -1 16 5 16 6 0 11 -6 11
-12 0 -7 11 -35 25 -63 13 -27 25 -60 25 -72 0 -16 6 -23 20 -23 17 0 20 7 20
43 0 51 8 63 26 39 7 -9 14 -12 14 -7 0 6 11 12 25 13 22 2 25 -2 25 -33 0
-19 -11 -60 -25 -91 -14 -31 -25 -58 -25 -60 0 -2 13 -4 29 -4 34 0 43 11 61
70 7 25 15 40 17 33 2 -7 -1 -22 -8 -34 -10 -19 -9 -21 5 -16 25 10 18 -153
-8 -182 -18 -20 -18 -21 9 -31 37 -14 55 -6 55 25 0 14 5 25 10 25 6 0 10 7
10 15 0 8 4 15 9 15 5 0 12 -22 16 -50 7 -54 14 -63 35 -50 11 7 12 23 1 103
-10 81 -10 100 3 128 l14 34 1 -34 c1 -32 2 -33 32 -27 l32 6 -7 -85 c-9 -122
-23 -179 -52 -206 -13 -12 -24 -26 -24 -31 0 -4 26 -8 59 -8 l59 0 11 78 c27
184 32 205 46 185 13 -19 55 -187 55 -222 0 -11 -5 -21 -11 -21 -5 0 -7 -4 -4
-10 3 -5 15 -10 26 -10 10 0 19 -6 19 -12 0 -10 2 -10 8 0 5 7 16 10 25 6 14
-5 15 1 12 43 -2 26 -13 91 -24 143 -11 52 -23 134 -27 181 l-7 87 25 -5 c15
-3 30 1 36 9 45 55 64 72 59 53 -4 -11 -7 -54 -8 -95 -1 -51 -6 -81 -17 -92
-14 -16 -13 -18 4 -18 56 1 64 9 65 69 0 48 2 53 11 31 5 -14 11 -55 11 -92 2
-67 3 -68 29 -68 15 0 29 3 31 7 2 5 -2 65 -11 136 -8 70 -12 130 -8 134 3 3
22 6 41 5 l36 -1 -2 201 c0 111 -3 208 -6 215 -3 7 -18 13 -34 13 -32 0 -43
-23 -37 -81 2 -28 -1 -35 -18 -37 -16 -2 -23 5 -33 37 -25 86 -108 53 -98 -38
3 -31 0 -52 -12 -72 -22 -37 -41 -24 -48 32 -3 24 -12 57 -20 73 -12 23 -14
51 -8 132 l7 104 -29 12 c-15 7 -30 15 -33 18 -3 3 -25 18 -50 32 -25 14 -97
73 -161 130 -64 56 -133 118 -155 136 -43 37 -30 33 31 -9 175 -118 404 -240
600 -318 85 -34 101 -38 103 -24 5 20 -4 25 -117 69 -265 104 -562 284 -781
474 -298 260 -426 383 -414 401 3 5 -1 9 -9 9 -21 0 -29 27 -14 51 13 21 38
22 45 0 3 -10 -2 -11 -18 -6 -19 6 -22 4 -17 -10 4 -9 7 -18 7 -19 0 -1 18 0
40 2 22 2 40 8 40 14 0 5 5 6 10 3 6 -3 10 0 10 7 0 11 -79 48 -115 54 -28 5
-27 7 5 15 26 6 38 4 46 -7 6 -7 26 -14 43 -14 40 0 72 -27 50 -41 -9 -7 -1
-8 26 -4 29 4 35 3 20 -4 -64 -30 130 11 284 60 67 22 267 69 316 75 28 3 59
9 70 14 11 5 61 18 110 30 50 12 118 28 152 37 35 8 69 13 76 10 16 -6 30 -74
47 -217 6 -52 13 -109 15 -127 7 -58 -3 -73 -47 -73 -32 0 -39 -3 -36 -17 2
-12 14 -17 43 -17 l40 -1 1 -46 c1 -58 8 -69 45 -69 l29 0 0 410 c0 356 -2
411 -15 416 -19 8 -19 48 0 64 13 11 15 60 12 369 -1 196 -7 367 -11 380 -7
17 -6 22 2 17 9 -5 12 580 12 2403 l0 2411 -5120 0 -5120 0 0 -1070z m7826
912 c-17 -16 -18 -16 -5 5 7 12 15 20 18 17 3 -2 -3 -12 -13 -22z m1010 13
c-3 -8 -1 -15 4 -15 6 0 10 5 10 10 0 6 4 10 9 10 19 0 4 -30 -54 -110 -33
-44 -76 -103 -95 -129 -96 -133 -252 -341 -275 -365 -21 -23 -28 -26 -40 -16
-8 7 -15 17 -15 22 0 17 282 388 291 382 5 -3 7 1 4 8 -3 7 11 30 30 51 19 21
35 41 35 45 0 4 12 20 26 37 24 28 27 29 38 13 7 -10 16 -15 19 -11 9 9 9 23
0 22 -21 -3 -22 3 -8 31 16 31 32 42 21 15z m-5705 -10 c4 3 11 -7 15 -22 4
-15 11 -33 16 -40 5 -7 6 -18 2 -24 -4 -8 -3 -9 4 -5 8 5 12 0 12 -13 0 -12 3
-21 8 -21 4 0 16 -24 26 -52 10 -29 24 -66 31 -83 7 -16 43 -113 80 -215 37
-102 73 -203 82 -225 13 -35 149 -422 250 -713 32 -92 39 -103 57 -99 12 3 98
26 191 51 226 62 509 119 559 112 27 -3 35 -2 25 5 -9 6 5 9 43 9 l57 0 5 -42
c19 -162 62 -669 141 -1648 8 -96 17 -209 20 -250 5 -63 3 -79 -12 -102 -144
-213 -227 -314 -411 -501 -169 -171 -516 -477 -541 -477 -6 0 -11 -6 -12 -12
0 -12 -116 -103 -267 -210 l-67 -47 -14 27 c-60 119 -514 910 -664 1157 -37
60 -67 112 -67 115 0 20 448 274 533 303 6 2 -1 27 -15 58 -45 95 -70 152
-103 234 -41 100 -118 273 -145 322 -11 21 -20 41 -20 44 0 7 -48 112 -131
288 -28 57 -51 108 -52 113 -2 10 4 14 143 89 155 84 410 209 427 209 6 0 37
13 138 59 84 37 83 17 14 261 -67 234 -181 630 -219 760 -86 293 -145 520
-143 548 0 6 -3 12 -8 12 -5 0 -9 10 -8 23 0 12 3 16 6 9 2 -6 9 -10 14 -7z
m4797 -2 c2 -7 -1 -13 -8 -13 -6 0 -9 4 -5 9 3 5 -3 12 -12 15 -15 4 -15 5 1
3 11 -1 21 -8 24 -14z m-2410 -21 c3 -18 -1 -22 -22 -22 -19 0 -26 5 -26 18 0
39 43 43 48 4z m-1678 -18 c0 -19 -5 -24 -24 -24 -29 0 -40 24 -20 44 20 20
44 9 44 -20z m-3627 4 c14 -21 -7 -48 -38 -48 -28 0 -39 24 -24 51 12 24 47
22 62 -3z m4775 13 c21 -13 10 -46 -16 -49 -24 -4 -38 18 -28 43 6 17 24 19
44 6z m4652 -30 c8 -20 23 -34 46 -41 45 -15 44 -41 -2 -63 -19 -10 -43 -31
-52 -47 -9 -16 -19 -30 -22 -30 -3 0 -13 14 -23 31 -9 17 -31 36 -47 42 -41
16 -42 52 0 60 21 5 35 17 50 47 23 45 31 45 50 1z m446 7 c3 -30 -16 -51 -39
-42 -22 8 -29 32 -16 55 15 30 51 21 55 -13z m-7684 -89 c43 -18 43 -26 -2
-54 -24 -15 -46 -39 -52 -56 -13 -38 -25 -37 -36 4 -6 22 -19 38 -45 52 -44
24 -44 46 -1 58 24 7 36 19 49 51 l17 41 20 -42 c13 -26 33 -47 50 -54z m5443
24 c-5 -23 -4 -25 9 -14 13 11 16 11 16 -1 0 -8 -3 -18 -7 -22 -5 -4 -8 -11
-8 -15 0 -22 -50 -119 -58 -114 -6 3 -7 1 -4 -4 6 -9 -93 -245 -158 -378 -33
-68 -173 -383 -255 -575 -104 -243 -229 -521 -241 -535 -5 -7 20 -25 69 -50
112 -57 242 -135 242 -144 0 -5 -26 -64 -59 -132 -96 -204 -130 -278 -187
-405 -29 -66 -60 -133 -69 -150 -8 -16 -15 -34 -15 -41 0 -6 -7 -24 -15 -40
-22 -44 -60 -130 -95 -218 -24 -60 -28 -80 -18 -84 33 -10 341 -172 403 -213
39 -25 82 -53 98 -62 15 -9 27 -23 27 -30 0 -8 -31 -65 -69 -128 -102 -169
-330 -555 -364 -618 -23 -42 -246 -435 -295 -520 -7 -11 -25 -3 -92 45 -136
99 -365 285 -362 296 1 6 -1 8 -6 5 -10 -6 -61 34 -157 125 -38 37 -105 97
-147 133 -98 86 -265 268 -382 417 -50 63 -95 123 -101 132 -5 9 -27 41 -48
70 l-38 54 10 89 c5 49 13 141 16 204 3 63 15 214 25 335 11 121 20 243 21
270 3 66 15 99 34 91 8 -3 15 -1 15 4 0 6 8 10 18 10 10 0 28 7 40 16 12 8 27
12 32 9 6 -3 10 -1 10 4 0 6 21 11 50 11 28 0 50 4 50 9 0 8 -83 52 -124 65
-19 7 -19 7 0 20 24 17 109 46 134 46 10 0 22 5 25 10 3 6 0 10 -9 10 -8 0
-16 3 -18 8 -7 16 -118 42 -179 42 l-64 0 3 52 c1 29 14 187 27 350 14 163 25
306 25 317 0 25 20 26 114 11 475 -78 699 -138 1071 -286 115 -46 215 -84 222
-84 6 0 15 10 19 23 4 12 103 220 220 463 222 460 261 543 324 684 97 219 131
284 141 269 8 -10 8 -7 4 10 -5 17 -4 22 5 16 9 -5 11 -4 6 4 -9 15 13 83 25
76 4 -3 11 7 15 22 10 46 14 50 11 11 -4 -45 0 -47 14 -10 10 23 12 25 18 9 6
-15 9 -12 21 17 16 42 25 47 15 9z m303 -44 c4 -30 -22 -46 -44 -28 -15 12
-19 41 -7 53 16 16 48 1 51 -25z m-5230 -6 c-3 -31 -34 -44 -44 -19 -9 24 3
46 26 46 17 0 21 -5 18 -27z m1642 -333 c29 -250 40 -374 40 -436 0 -47 -3
-56 -22 -63 -28 -11 -54 2 -63 30 -4 11 -3 203 1 427 6 318 10 386 16 312 4
-52 17 -174 28 -270z m2651 250 l-36 -35 -17 25 c-10 13 -26 28 -38 32 -28 10
-25 26 6 34 14 4 30 17 35 31 l9 25 38 -38 39 -39 -36 -35z m-2936 60 c0 -16
-6 -26 -18 -28 -19 -4 -32 20 -23 44 9 25 41 13 41 -16z m2425 -17 c28 -65 47
-83 85 -83 18 0 46 -3 63 -6 28 -6 30 -9 20 -28 -6 -11 -25 -39 -43 -61 -31
-38 -140 -211 -190 -299 -12 -22 -27 -42 -32 -43 -5 -2 -22 38 -37 89 -23 73
-99 278 -133 356 -4 9 16 12 80 12 l86 0 33 55 c18 30 36 55 40 55 4 0 16 -21
28 -47z m-883 25 c16 -22 9 -43 -15 -46 -24 -4 -38 18 -28 43 7 18 30 20 43 3z
m1681 -59 c2 -20 -2 -28 -19 -32 -28 -7 -39 -1 -39 22 0 44 53 53 58 10z
m-3998 -23 c0 -20 -27 -39 -45 -32 -18 6 -20 37 -3 54 14 14 48 -2 48 -22z
m487 -46 c-3 -10 -1 -18 5 -17 5 1 21 -26 35 -60 25 -62 26 -63 63 -63 20 0
59 -3 86 -7 l48 -6 -68 -61 -67 -61 20 -75 c12 -41 21 -76 21 -77 0 -9 -102
52 -107 63 -3 8 -8 12 -12 10 -4 -3 -13 -1 -20 4 -9 5 -37 -7 -82 -36 -38 -24
-69 -40 -69 -35 0 6 7 40 16 77 12 55 13 69 2 79 -7 7 -38 35 -69 62 l-56 51
51 6 c28 3 69 6 92 6 l41 0 27 80 c16 44 33 80 38 80 6 0 8 -9 5 -20z m837 4
c29 -29 12 -64 -31 -64 -27 0 -42 42 -23 65 16 19 35 19 54 -1z m461 -91 l27
-71 68 -7 c36 -4 72 -10 78 -14 8 -4 -10 -23 -48 -52 -32 -24 -59 -48 -60 -54
0 -5 9 -39 20 -74 11 -36 18 -67 16 -68 -4 -5 -69 31 -108 58 l-26 19 -66 -40
c-36 -22 -68 -40 -70 -40 -4 0 18 104 29 131 4 11 -13 30 -59 65 -36 27 -66
52 -66 55 0 4 36 10 79 13 l79 7 32 80 c18 44 36 77 40 72 4 -4 20 -40 35 -80z
m-4330 -13 c2 -11 0 -20 -4 -20 -15 0 -32 28 -36 60 l-4 32 20 -26 c11 -14 22
-35 24 -46z m-622 -61 c9 -17 31 -36 47 -42 40 -15 42 -53 3 -68 -16 -5 -40
-24 -55 -42 l-26 -32 -13 27 c-6 15 -27 34 -45 43 -45 21 -47 58 -4 74 17 5
33 18 37 28 8 22 23 43 32 43 3 0 14 -14 24 -31z m7781 -161 c-205 -415 -290
-578 -474 -913 -19 -33 -44 -77 -57 -97 -13 -21 -23 -40 -23 -42 0 -10 -94
-161 -104 -168 -10 -7 -61 15 -70 31 -11 17 29 94 169 322 6 9 23 38 38 65 32
56 60 103 92 154 12 19 41 67 65 105 88 142 145 230 153 233 4 2 7 9 7 14 0
12 118 214 185 318 23 36 54 84 69 108 51 82 35 40 -50 -130z m2031 141 c8
-24 7 -24 -23 -33 -24 -8 -39 12 -28 39 8 22 44 18 51 -6z m-9004 -55 l32 -55
63 7 c35 3 64 2 64 -2 -1 -5 -18 -29 -39 -52 l-38 -44 30 -54 c16 -31 27 -58
23 -61 -3 -3 -31 4 -61 15 l-56 22 -50 -53 -50 -52 7 72 7 73 -57 26 c-31 14
-56 29 -56 34 0 5 26 17 57 27 56 19 58 21 66 64 12 71 17 89 22 89 3 0 19
-25 36 -56z m8563 29 c9 -22 -13 -45 -38 -41 -24 3 -33 33 -16 52 13 17 46 10
54 -11z m-3748 -35 c4 -15 1 -25 -12 -35 -24 -18 -31 -17 -44 8 -9 15 -8 24 1
35 17 21 47 17 55 -8z m-2402 -22 c9 -13 7 -20 -8 -31 -32 -24 -62 15 -34 43
15 15 28 11 42 -12z m5809 -106 c42 -77 57 -96 77 -98 41 -5 200 -44 200 -49
0 -3 -34 -39 -75 -81 l-76 -77 7 -118 7 -117 -81 34 c-45 19 -91 40 -102 46
-17 9 -33 5 -88 -20 -37 -18 -82 -39 -100 -47 -18 -9 -34 -14 -36 -12 -1 2 1
54 4 114 l7 110 -84 83 c-45 46 -83 85 -83 87 0 3 9 5 21 5 11 0 64 12 118 26
l97 26 37 72 c62 120 78 143 89 126 5 -8 32 -58 61 -110z m-6598 14 l28 -50
44 14 c24 8 46 13 48 10 3 -3 0 -19 -6 -37 -9 -24 -9 -39 0 -57 15 -33 14 -44
-4 -44 -30 0 -63 -23 -78 -56 -21 -43 -40 -43 -56 1 -10 28 -18 35 -49 41 -20
3 -50 9 -65 13 l-29 6 45 32 c48 35 57 57 57 148 0 84 8 81 65 -21z m-2025 21
c14 -16 5 -51 -14 -58 -17 -7 -56 19 -56 37 0 33 48 48 70 21z m1256 -20 c7
-18 -13 -45 -33 -45 -17 0 -27 24 -19 45 7 20 45 19 52 0z m269 -31 c9 -15 12
-23 6 -20 -11 7 -35 46 -28 46 3 0 12 -12 22 -26z m4896 -70 c16 3 29 2 29 -2
0 -16 -23 -30 -39 -25 -9 3 -12 1 -6 -4 20 -16 34 -59 23 -74 -8 -11 -9 -11
-5 3 3 9 -1 22 -10 30 -14 11 -15 11 -11 -2 3 -8 -5 -27 -18 -42 -13 -16 -20
-35 -17 -47 10 -39 -16 -29 -37 14 -19 39 -24 43 -41 34 -11 -5 -24 -7 -29 -4
-6 3 -10 1 -10 -6 0 -7 -3 -10 -6 -6 -3 3 -1 14 5 24 6 10 11 12 11 6 0 -7 5
-13 11 -13 6 0 8 8 4 19 -3 11 0 21 8 24 8 3 17 15 20 26 3 12 2 19 -1 17 -4
-2 -13 2 -20 10 -11 12 -9 14 11 14 17 0 28 10 41 37 l18 38 20 -39 c18 -34
23 -38 49 -32z m-4837 -24 c14 -28 30 -56 36 -62 18 -21 220 -359 220 -368 0
-5 4 -10 8 -12 19 -7 243 -400 240 -420 -2 -12 -16 -30 -31 -42 l-29 -21 -24
30 c-13 17 -101 185 -195 375 -94 190 -178 358 -186 373 -8 15 -12 35 -9 43 3
8 2 13 -2 10 -5 -3 -21 20 -35 50 -15 31 -23 53 -17 49 15 -9 12 8 -7 34 -9
14 -11 21 -5 17 6 -4 23 -29 36 -56z m4682 -2 l29 -33 -35 30 c-19 17 -37 31
-39 33 -2 1 0 2 5 2 6 0 23 -15 40 -32z m-2082 -121 c11 -8 17 -23 14 -38 -2
-19 -10 -25 -35 -27 -28 -3 -33 1 -39 23 -11 44 24 69 60 42z m-4132 -8 c142
-31 251 -119 316 -256 33 -71 36 -86 36 -168 1 -107 -16 -145 -100 -231 -136
-140 -363 -174 -516 -78 -158 99 -232 273 -204 475 5 33 4 39 -4 22 -13 -31
-18 -29 -12 3 4 20 2 25 -8 19 -9 -5 -11 -4 -6 4 4 6 12 8 18 5 7 -5 8 -2 3 5
-4 8 1 21 14 32 12 11 21 24 21 29 0 14 91 81 101 74 5 -3 9 -1 9 4 0 14 85
52 114 52 14 0 28 5 31 10 8 13 121 13 187 -1z m4946 -5 c46 -32 7 -108 -42
-82 -41 21 -46 48 -16 78 24 24 29 24 58 4z m-4300 -61 c-4 -22 -22 -20 -26 1
-2 10 3 16 13 16 10 0 15 -7 13 -17z m716 -9 c21 -8 21 -50 0 -58 -32 -12 -57
27 -32 52 14 14 12 14 32 6z m4443 -119 c40 -10 68 -25 45 -25 -6 0 -24 -12
-41 -26 -24 -20 -31 -34 -31 -62 l0 -35 -24 22 -25 23 -29 -21 c-41 -29 -45
-27 -38 22 6 40 4 43 -29 66 -19 13 -35 27 -35 32 0 5 19 9 43 9 42 0 43 1 72
58 l29 57 10 -55 c11 -54 12 -55 53 -65z m1562 76 c13 -24 -9 -57 -33 -48 -19
7 -22 53 -3 60 21 9 26 7 36 -12z m-4261 -70 c-2 -18 -9 -26 -23 -26 -23 0
-32 30 -15 50 18 21 42 7 38 -24z m1570 6 c2 -9 -4 -20 -12 -23 -21 -8 -46 13
-39 32 8 20 47 13 51 -9z m-2378 -52 c0 -20 -5 -25 -25 -25 -18 0 -25 5 -25
18 0 24 8 32 32 32 13 0 18 -7 18 -25z m1205 -10 c0 -30 -39 -27 -43 3 -3 20
0 23 20 20 15 -2 23 -10 23 -23z m2724 -4 c8 -14 7 -22 -4 -31 -17 -14 -35 -5
-35 19 0 34 24 42 39 12z m1685 -67 c8 -21 -1 -34 -23 -34 -24 0 -30 8 -24 31
6 23 38 25 47 3z m-7193 -49 l36 -36 41 14 c43 15 50 10 31 -24 -13 -25 -5
-51 28 -89 l25 -30 -46 0 c-33 0 -48 -5 -53 -16 -5 -13 -8 -13 -15 -2 -7 10
-8 8 -7 -7 3 -25 -10 -65 -21 -65 -5 0 -14 17 -20 38 -16 49 -16 49 -78 65
l-53 13 40 27 c44 29 56 56 49 112 -2 19 -2 35 1 35 3 0 22 -16 42 -35z m7439
-35 c0 -5 19 -57 41 -116 38 -99 44 -107 78 -120 20 -8 58 -24 84 -36 l48 -22
-87 -43 c-92 -46 -247 -151 -352 -240 -58 -49 -129 -89 -139 -79 -5 5 34 223
42 235 3 5 -27 52 -65 104 -39 52 -70 97 -70 100 0 2 42 7 93 11 159 12 166
14 196 60 70 110 113 166 122 161 5 -4 9 -10 9 -15z m-6054 -99 c-9 -14 -33
-14 -41 -1 -4 6 -1 18 6 26 11 13 14 13 27 0 8 -8 11 -19 8 -25z m364 -11 c0
-24 -15 -40 -36 -40 -13 0 -24 2 -24 4 0 2 -3 11 -6 19 -9 23 24 49 47 37 10
-6 19 -15 19 -20z m1835 -15 c0 -31 -19 -42 -44 -26 -9 6 -11 18 -7 36 5 20
12 26 29 23 17 -2 22 -10 22 -33z m4935 -144 c0 -29 -25 -45 -49 -31 -25 13
-27 33 -5 54 19 20 54 5 54 -23z m-546 -46 c8 -23 -4 -45 -25 -45 -22 0 -34
22 -25 45 3 8 14 15 25 15 10 0 21 -7 25 -15z m-1104 -9 c0 -3 -4 -8 -10 -11
-5 -3 -10 -1 -10 4 0 6 5 11 10 11 6 0 10 -2 10 -4z m1410 -268 c0 -7 14 -24
30 -38 l31 -25 -34 -38 c-33 -35 -67 -49 -67 -27 0 5 -14 25 -30 44 -28 31
-29 35 -12 40 10 4 29 18 42 31 26 27 40 32 40 13z m-7770 -44 c34 -54 29 -82
-19 -101 -31 -13 -32 -13 -61 34 -17 26 -30 51 -30 55 0 15 48 58 65 58 8 0
29 -21 45 -46z m-798 11 l28 -24 -30 -32 -29 -32 -29 30 -28 31 25 26 c14 14
28 25 31 25 3 0 17 -10 32 -24z m7107 -50 c16 -28 27 -35 51 -35 36 0 37 -3 9
-31 -16 -16 -20 -30 -17 -60 2 -22 1 -38 -2 -36 -54 30 -61 31 -90 14 -40 -24
-43 -22 -35 19 5 31 2 41 -21 65 l-28 29 38 0 c33 0 39 4 52 35 8 19 16 35 18
35 2 0 13 -16 25 -35z m-7931 -63 c4 -28 -24 -40 -44 -20 -14 13 -14 17 1 32
22 21 39 16 43 -12z m8992 -10 c0 -9 -107 -153 -120 -162 -4 -3 -13 -16 -20
-30 -7 -14 -36 -53 -63 -88 -36 -44 -53 -58 -59 -50 -5 9 -7 5 -6 -9 2 -15
-30 -61 -106 -152 -96 -116 -126 -142 -126 -111 0 5 8 6 18 3 16 -6 16 -6 -1
11 -20 21 -22 20 -32 -13 -5 -15 -4 -21 3 -17 22 13 22 -14 0 -41 -50 -59 -86
-94 -91 -86 -7 11 3 25 28 39 11 6 26 28 33 49 13 39 8 61 -8 35 -5 -8 -12
-11 -16 -8 -10 10 24 40 37 33 7 -5 9 0 7 13 -2 13 18 44 57 88 92 106 141
155 148 147 4 -3 7 -1 7 6 0 7 6 11 13 8 8 -3 14 0 14 6 1 33 38 85 55 80 5
-2 7 0 5 5 -3 10 12 27 118 138 50 52 92 99 93 104 4 12 12 13 12 2z m-8510
-55 c0 -4 4 -5 10 -2 6 4 7 -1 3 -11 -4 -12 -3 -15 5 -10 7 4 12 1 12 -9 0 -9
4 -14 9 -11 12 8 82 -74 74 -87 -3 -6 -2 -7 4 -4 6 4 41 -30 79 -75 38 -45 99
-116 135 -157 103 -119 309 -379 309 -391 0 -5 5 -10 10 -10 6 0 10 -5 10 -11
0 -5 -4 -8 -8 -5 -4 2 -8 -9 -7 -26 0 -48 -27 -43 -73 10 -48 58 -372 495
-430 579 -23 35 -42 67 -42 73 0 5 -4 10 -8 10 -10 0 -122 162 -122 175 1 12
30 -25 30 -38z m8660 -93 c11 -12 10 -18 -3 -32 -16 -15 -18 -15 -34 0 -13 14
-14 20 -3 32 7 9 16 16 20 16 4 0 13 -7 20 -16z m-8102 -77 c3 -23 0 -27 -22
-27 -21 0 -26 5 -26 23 0 13 3 27 7 31 15 14 38 0 41 -27z m332 -2 c27 -32
-23 -82 -55 -55 -15 13 -20 51 -8 63 12 12 50 7 63 -8z m7145 -10 c0 -13 -8
-21 -22 -23 -17 -3 -23 2 -23 16 0 10 3 22 7 26 13 13 38 1 38 -19z m-391 -1
c11 -28 6 -43 -16 -50 -28 -9 -52 20 -37 47 12 23 45 25 53 3z m-8094 -50 l96
-35 114 40 c63 22 117 38 119 35 2 -2 -13 -50 -33 -106 -20 -57 -36 -114 -36
-128 0 -20 -2 -22 -10 -10 -8 12 -10 8 -11 -15 -1 -29 -1 -30 -9 -5 -5 17 -8
19 -9 8 -1 -16 -10 -17 -83 -13 -60 4 -84 2 -90 -7 -8 -10 -11 -10 -15 -1 -3
9 -10 10 -23 3 -10 -5 -26 -7 -35 -4 -10 4 -21 1 -27 -7 -7 -10 -8 -9 -3 6 11
29 11 30 -34 153 -46 128 -48 137 -23 127 9 -4 60 -22 112 -41z m7195 -19 c30
-29 32 -58 5 -85 -11 -11 -29 -20 -40 -20 -25 0 -70 42 -70 65 0 9 11 27 25
40 13 14 31 25 40 25 9 0 27 -11 40 -25z m-4963 -2 c39 -35 11 -103 -43 -103
-35 0 -59 24 -59 57 0 55 62 83 102 46z m7108 -87 c0 -3 -4 -8 -10 -11 -5 -3
-10 -1 -10 4 0 6 5 11 10 11 6 0 10 -2 10 -4z m-400 -81 c0 -18 -5 -25 -19
-25 -11 0 -21 6 -24 13 -7 20 4 37 24 37 14 0 19 -7 19 -25z m-8118 -395 c61
-69 149 -165 195 -214 103 -110 118 -134 97 -165 -25 -35 -48 -25 -109 47 -32
37 -62 66 -67 64 -4 -1 -8 6 -8 15 0 10 -24 48 -53 84 -237 300 -368 473 -388
512 -14 28 190 -182 333 -343z m8865 338 c-3 -8 -6 -5 -6 6 -1 11 2 17 5 13 3
-3 4 -12 1 -19z m-245 -93 c26 -7 28 -10 26 -55 -2 -41 -6 -49 -28 -57 -15 -6
-40 -8 -56 -6 -30 5 -30 5 -23 56 4 29 10 62 14 75 7 20 9 21 24 8 9 -8 28
-18 43 -21z m-9335 -11 c-3 -3 -12 -4 -19 -1 -8 3 -5 6 6 6 11 1 17 -2 13 -5z
m8303 -21 c0 -5 -5 -15 -10 -23 -9 -13 -11 -13 -19 0 -5 8 -7 18 -5 22 6 10
34 11 34 1z m-6070 -27 c0 -28 40 -50 88 -49 40 1 44 0 28 -10 -64 -41 -76
-57 -76 -110 l-1 -52 -18 35 c-11 19 -28 43 -40 54 -18 16 -26 17 -67 7 -61
-16 -66 -8 -12 19 66 34 78 48 78 92 0 24 4 37 10 33 6 -3 10 -12 10 -19z
m4725 -63 c3 -12 25 -33 51 -48 25 -15 44 -28 42 -30 -2 -2 -23 1 -46 7 -49
12 -63 5 -92 -51 l-19 -36 -1 45 c-1 52 -16 76 -53 85 -53 14 -44 29 13 26 30
-2 76 30 87 62 7 20 8 20 11 -8 1 -16 5 -40 7 -52z m1289 45 c-7 -24 -22 -38
-39 -38 -6 0 -6 3 1 8 6 4 14 16 18 26 7 20 7 20 -16 0 l-23 -19 19 23 c11 12
25 22 33 22 10 0 12 -6 7 -22z m740 -25 c4 -9 0 -23 -9 -32 -13 -14 -17 -14
-31 1 -9 9 -14 24 -11 32 8 21 43 20 51 -1z m-806 -38 c-3 -3 -9 2 -12 12 -6
14 -5 15 5 6 7 -7 10 -15 7 -18z m17 -14 c-18 -36 -31 -45 -41 -30 -5 8 -3 9
6 4 10 -6 12 -4 7 9 -4 10 -3 15 3 11 5 -3 14 4 20 15 6 11 13 20 16 20 2 0
-2 -13 -11 -29z m32 -6 c-24 -24 -29 -18 -10 11 9 15 19 22 21 15 2 -6 -3 -18
-11 -26z m-6784 -6 c5 -9 7 -28 3 -43 -6 -23 -11 -27 -38 -24 -41 4 -56 28
-40 63 9 20 18 26 39 23 14 -2 30 -10 36 -19z m6351 5 c27 -27 18 -64 -18 -77
-23 -9 -56 18 -56 44 0 21 26 49 45 49 7 0 21 -7 29 -16z m406 -28 c0 -2 -8
-10 -17 -17 -16 -13 -17 -12 -4 4 13 16 21 21 21 13z m-7190 -56 c0 -5 -4 -10
-10 -10 -5 0 -10 5 -10 10 0 6 5 10 10 10 6 0 10 -4 10 -10z m-1025 -59 c0
-27 -13 -35 -34 -22 -8 5 -11 16 -6 30 9 30 40 23 40 -8z m9216 -44 c-13 -13
-26 -3 -16 12 3 6 11 8 17 5 6 -4 6 -10 -1 -17z m-235 -127 c50 -17 50 -27 0
-52 -44 -21 -56 -39 -56 -85 0 -31 -24 -29 -44 3 -24 36 -54 44 -100 28 -21
-8 -40 -14 -43 -14 -2 0 8 22 23 49 l27 48 -21 35 c-32 52 -29 57 29 45 l52
-10 36 43 36 44 13 -61 c12 -57 16 -63 48 -73z m-8683 66 c11 -23 27 -38 51
-47 20 -7 36 -17 36 -21 0 -4 -17 -19 -38 -32 -22 -13 -45 -38 -52 -55 -16
-40 -26 -39 -40 3 -7 24 -22 38 -50 52 -46 22 -46 35 -2 49 24 7 37 20 49 47
9 21 20 38 23 38 3 0 14 -15 23 -34z m1215 -174 c5 -30 -39 -57 -67 -42 -28
14 -27 55 1 74 19 13 25 14 43 2 11 -7 21 -23 23 -34z m6210 26 c26 -26 8 -78
-27 -78 -20 0 -51 30 -51 50 0 22 20 40 45 40 12 0 26 -5 33 -12z m567 -198
c0 -20 -6 -26 -27 -28 -24 -3 -28 0 -28 21 0 30 9 39 35 35 14 -2 20 -10 20
-28z m-6890 -170 c26 -30 52 -59 59 -65 6 -5 38 -41 71 -80 60 -71 326 -376
335 -385 8 -8 78 -88 145 -164 59 -68 271 -305 428 -479 l80 -88 -24 -17 c-37
-27 -95 -60 -233 -134 l-130 -69 -105 105 c-298 296 -889 870 -961 933 -30 26
-93 84 -139 129 l-84 81 43 45 c29 31 49 44 61 41 12 -4 19 0 19 10 0 8 9 17
20 20 11 3 20 0 20 -6 0 -7 5 -5 10 3 5 8 10 20 10 25 0 6 -4 4 -9 -4 -7 -10
-10 -10 -16 -1 -4 7 -3 15 2 19 6 3 16 16 22 29 7 13 27 30 44 37 18 8 26 14
19 15 -10 0 -10 4 2 16 9 8 16 19 16 22 0 16 53 63 66 58 8 -3 11 0 8 9 -3 8
9 27 27 43 l32 29 57 -61 c31 -34 78 -86 105 -116z m6557 132 c7 19 34 -6 42
-37 4 -16 14 -25 25 -25 10 0 31 -16 46 -36 36 -48 97 -103 113 -104 6 0 12
-8 12 -18 0 -10 8 -25 18 -33 11 -9 25 -25 33 -35 8 -10 31 -32 52 -47 20 -15
37 -34 37 -41 0 -8 -17 -29 -37 -47 -21 -18 -94 -84 -162 -148 -69 -64 -156
-145 -195 -181 -96 -89 -570 -544 -616 -591 -8 -9 -40 -37 -70 -64 -30 -26
-90 -82 -133 -123 l-79 -76 -66 34 c-111 56 -311 170 -317 181 -9 13 7 33 210
251 146 157 325 352 380 414 32 36 178 197 221 244 28 30 68 75 90 99 21 25
53 59 69 76 17 17 57 62 90 101 33 38 94 104 135 147 64 68 76 76 86 62 9 -12
13 -13 16 -3z m-5984 -104 c28 -28 -2 -88 -45 -88 -19 0 -43 30 -43 54 0 29
18 46 50 46 14 0 31 -5 38 -12z m5286 -4 c23 -22 20 -41 -10 -60 -24 -16 -26
-16 -46 4 -19 18 -20 25 -10 47 13 29 43 33 66 9z m-7586 -31 c3 -28 -1 -33
-23 -39 -39 -10 -63 16 -47 51 10 21 18 26 40 23 22 -2 28 -8 30 -35z m9832
-13 c0 -24 -5 -31 -27 -36 -19 -5 -30 -2 -40 11 -17 25 -17 31 7 55 28 28 60
11 60 -30z m-4870 -65 c7 -8 13 -26 13 -40 0 -14 -6 -32 -13 -40 -28 -33 -100
-6 -100 38 0 47 71 77 100 42z m4217 -180 c40 -60 76 -114 80 -120 4 -5 17
-27 28 -47 11 -21 22 -38 26 -38 4 0 10 -8 13 -17 3 -10 13 -29 21 -43 14 -24
13 -26 -18 -55 -83 -75 -167 -146 -213 -181 -27 -20 -72 -58 -99 -83 -28 -25
-80 -72 -117 -105 -37 -32 -65 -62 -62 -67 3 -5 -1 -7 -8 -4 -7 3 -41 -22 -76
-54 -35 -33 -82 -74 -105 -93 -208 -168 -317 -264 -312 -275 2 -8 0 -11 -5 -8
-6 4 -43 -18 -83 -48 -97 -75 -138 -113 -134 -129 2 -7 2 -10 0 -5 -11 18 -23
4 -17 -20 6 -21 4 -25 -8 -20 -11 4 -17 -2 -21 -19 -4 -25 7 -34 16 -11 3 7 6
5 6 -6 1 -14 4 -15 20 -5 11 7 17 16 14 21 -3 5 -9 3 -14 -4 -6 -9 -9 -10 -9
-2 0 26 12 41 31 36 10 -3 16 -10 12 -15 -3 -6 0 -8 8 -4 8 3 21 9 31 12 9 3
19 17 23 31 5 21 10 24 33 19 19 -5 23 -4 12 3 -19 13 -11 20 26 24 48 6 118
52 107 70 -4 6 0 8 10 4 10 -3 17 -2 17 3 0 6 -15 10 -32 10 -25 1 -29 3 -17
10 8 5 31 5 53 0 31 -7 36 -6 32 6 -3 8 -2 12 4 9 5 -3 30 7 56 23 25 16 43
32 38 34 -5 3 -3 3 5 1 7 -2 34 12 60 30 25 19 54 37 64 40 10 4 15 11 12 17
-3 5 0 8 7 5 7 -2 22 2 33 11 17 13 18 16 5 25 -12 9 -12 10 3 5 19 -6 77 21
77 36 0 4 6 8 14 8 8 0 28 14 46 30 18 17 37 30 42 30 17 0 88 54 88 68 0 6 7
12 16 12 8 0 30 11 48 25 18 14 36 25 40 25 4 0 15 -19 25 -42 10 -24 28 -64
40 -90 46 -103 59 -134 66 -156 4 -13 18 -48 30 -77 l24 -53 153 77 c84 42
164 84 178 94 32 22 76 22 83 0 3 -10 19 -57 36 -104 39 -110 83 -278 76 -290
-4 -5 -10 -9 -16 -9 -5 0 -28 -8 -52 -19 -23 -10 -71 -30 -107 -44 -244 -95
-252 -99 -243 -123 3 -8 0 -14 -6 -14 -6 0 -11 6 -12 13 0 10 -2 10 -6 0 -2
-7 -19 -13 -37 -13 -18 0 -36 -4 -41 -8 -6 -5 -38 -19 -72 -32 -34 -13 -60
-27 -58 -30 2 -3 -7 -6 -19 -6 -12 -1 -59 -18 -106 -38 -47 -20 -73 -34 -59
-32 18 4 26 1 26 -8 0 -8 -7 -13 -16 -11 -9 1 -30 -1 -48 -6 -22 -4 -31 -3
-27 3 4 6 3 9 -2 7 -5 -2 -42 -17 -82 -33 -39 -16 -72 -33 -72 -38 0 -4 -9 -8
-20 -8 -11 0 -28 -4 -38 -9 -9 -5 -28 -14 -42 -19 -19 -8 -20 -11 -7 -11 10
-1 15 -6 12 -11 -3 -6 -17 -7 -30 -4 -13 3 -37 -1 -54 -10 -31 -16 -44 -33
-18 -23 8 3 20 1 28 -4 9 -6 10 -9 2 -9 -7 0 -10 -7 -7 -15 4 -8 15 -15 25
-15 12 0 19 -7 18 -17 0 -11 -3 -13 -6 -5 -2 6 -9 12 -15 12 -6 0 -20 10 -32
23 -12 12 -47 45 -77 73 -30 28 -88 88 -128 133 l-74 81 0 84 c1 46 -2 87 -6
92 -3 5 -42 18 -86 28 -44 11 -89 24 -100 30 -20 10 -26 12 -45 15 -6 0 -9 11
-7 24 2 12 2 16 0 10 -3 -7 -9 -13 -14 -13 -6 0 -7 -4 -4 -10 3 -5 2 -10 -3
-10 -19 0 -21 14 -5 33 18 20 18 20 -14 2 -32 -19 -34 -19 -105 4 -84 26 -333
119 -362 134 -18 9 -18 11 -3 22 14 10 117 102 216 194 24 21 139 124 181 161
50 44 203 183 260 235 36 34 88 81 115 105 28 25 138 125 245 224 107 98 231
209 275 247 44 37 121 106 170 153 52 48 92 79 95 73 3 -7 38 -61 77 -122z
m-6837 -15 c0 -13 -7 -20 -20 -20 -13 0 -20 7 -20 20 0 13 7 20 20 20 13 0 20
-7 20 -20z m-1903 2 c20 -13 26 -57 9 -71 -26 -22 -61 -10 -64 24 -5 38 27 65
55 47z m9001 -4 c28 -28 7 -78 -34 -78 -35 0 -48 61 -16 79 23 14 36 13 50 -1z
m-2059 -72 c15 -18 3 -46 -20 -46 -22 0 -34 22 -25 45 7 19 30 19 45 1z
m-7245 -258 c15 -24 -3 -52 -37 -56 -28 -4 -43 23 -32 59 8 25 52 23 69 -3z
m9626 7 c15 -18 6 -61 -16 -69 -24 -9 -54 12 -54 37 0 43 44 63 70 32z m-7104
-26 c17 -19 17 -23 3 -47 -21 -38 -62 -41 -85 -8 -15 24 -15 28 0 51 20 31 56
33 82 4z m4558 8 c25 -18 17 -58 -16 -76 -24 -14 -28 -14 -47 3 -53 48 5 115
63 73z m-341 -269 c6 -20 -4 -48 -17 -48 -20 0 -34 20 -29 41 6 21 39 26 46 7z
m-5887 -135 c-6 -6 -36 9 -36 18 0 5 9 4 20 -3 10 -7 18 -14 16 -15z m2002
-31 c3 -17 -2 -22 -18 -22 -25 0 -38 29 -19 41 20 13 34 6 37 -19z m-1937 -24
c11 -21 11 -22 -4 -9 -10 7 -17 17 -17 22 0 15 9 10 21 -13z m59 -69 c0 -6 -4
-7 -10 -4 -5 3 -10 11 -10 16 0 6 5 7 10 4 6 -3 10 -11 10 -16z m4154 -81 c-6
-10 -4 -10 8 0 8 7 22 10 31 6 18 -7 31 -34 16 -34 -6 0 -7 -4 -4 -10 3 -5 2
-10 -4 -10 -5 0 -13 5 -16 10 -3 6 -1 10 5 10 6 0 9 4 6 9 -10 15 -42 1 -43
-18 -1 -10 4 -18 10 -18 41 1 49 -3 37 -18 -24 -29 -90 -6 -90 32 0 24 20 53
36 53 9 0 12 -5 8 -12z m748 -23 c9 -21 8 -28 -7 -45 -31 -34 -75 -20 -75 25
0 48 62 63 82 20z m2294 -277 c-10 -6 -20 -7 -24 -3 -9 8 20 25 31 18 5 -3 2
-10 -7 -15z m44 -18 c0 -5 -12 -10 -27 -10 -22 0 -25 2 -13 10 20 13 40 13 40
0z m-2150 -165 c0 -8 5 -15 11 -15 14 0 6 -25 -9 -26 -7 -1 -16 -2 -21 -3 -4
0 -6 -12 -4 -25 4 -18 10 -23 26 -20 11 2 25 9 31 15 8 8 5 10 -11 5 -12 -4
-24 -2 -29 5 -4 7 -3 9 3 6 6 -4 19 3 29 14 18 20 18 21 -1 35 -10 8 -14 14
-7 14 12 0 42 -39 42 -55 0 -5 -5 -3 -11 5 -8 12 -10 10 -5 -10 5 -25 -17 -60
-39 -60 -27 0 -65 27 -74 52 -8 22 -6 32 10 53 22 27 59 34 59 10z m1614 -107
c13 -19 14 -25 2 -43 -26 -39 -76 -26 -76 19 0 46 48 62 74 24z m-5721 -22 c6
-15 -2 -56 -11 -56 -2 0 -10 8 -17 17 -10 13 -10 21 -1 35 13 22 22 23 29 4z
m471 -63 c4 -10 1 -22 -6 -28 -8 -5 -12 -18 -10 -28 4 -21 -23 -33 -42 -18
-20 17 -29 61 -15 77 16 20 65 18 73 -3z m4829 -48 c7 -16 -8 -29 -23 -20 -15
9 -12 35 4 35 8 0 16 -7 19 -15z m-4813 1 c0 -3 -4 -8 -10 -11 -5 -3 -10 -1
-10 4 0 6 5 11 10 11 6 0 10 -2 10 -4z m808 -39 c2 -12 -3 -17 -17 -17 -12 0
-21 6 -21 13 0 31 32 34 38 4z m1837 -19 c60 -143 167 -349 240 -458 104 -157
318 -420 342 -420 5 0 14 -5 21 -12 9 -9 9 -15 -1 -27 -10 -14 -10 -14 3 -4
13 10 24 5 63 -31 36 -35 43 -45 31 -50 -14 -5 -14 -9 -3 -23 13 -16 12 -16
-10 0 -23 15 -41 55 -20 41 5 -3 7 -10 4 -15 -3 -5 1 -6 11 -2 15 5 15 7 0 15
-9 5 -13 15 -9 21 5 9 2 8 -9 0 -8 -7 -18 -10 -22 -6 -4 4 -4 -1 -1 -12 7 -20
6 -20 -10 0 -9 11 -21 19 -26 18 -5 -2 -9 2 -9 9 0 6 -3 9 -6 5 -15 -14 -239
209 -322 322 -140 188 -285 498 -296 634 -4 49 7 47 29 -5z m-4648 26 c-3 -3
-12 -4 -19 -1 -8 3 -5 6 6 6 11 1 17 -2 13 -5z m3738 -36 c-20 -120 -156 -411
-228 -489 -17 -19 -32 -37 -32 -41 0 -3 -4 -10 -9 -15 -5 -5 -6 -3 -2 5 4 7 1
12 -9 12 -13 0 -14 -4 -5 -22 11 -22 10 -22 -4 -4 -14 18 -14 22 7 50 64 85
242 437 263 521 11 43 26 28 19 -17z m1250 -43 c74 -184 219 -436 323 -565 20
-24 30 -40 22 -36 -8 5 -3 -2 11 -15 33 -30 111 -120 83 -96 -20 16 -34 14
-34 -5 0 -5 5 -6 10 -3 6 4 9 1 8 -7 -2 -7 3 -12 10 -10 8 1 11 -2 7 -8 -6 -9
-54 18 -53 30 1 20 -3 32 -9 27 -9 -10 -75 61 -68 73 4 6 2 9 -4 8 -6 -2 -44
42 -85 96 -118 156 -266 474 -266 570 0 40 10 26 45 -59z m975 65 c0 -11 -7
-20 -15 -20 -8 0 -15 9 -15 20 0 11 7 20 15 20 8 0 15 -9 15 -20z m-1914 -17
c-3 -16 -9 -44 -12 -63 -16 -94 -97 -284 -184 -430 -144 -243 -379 -475 -611
-603 -81 -44 -219 -103 -262 -112 l-32 -6 35 21 c19 11 42 25 50 30 8 5 35 21
60 34 257 138 507 380 703 682 86 132 237 428 237 463 0 6 5 11 11 11 7 0 9
-10 5 -27z m339 -98 c176 -517 476 -894 873 -1094 105 -53 274 -99 425 -116
38 -4 57 -11 55 -18 -3 -7 -18 -61 -34 -121 -23 -88 -33 -110 -51 -117 -28
-10 -44 -40 -36 -68 3 -14 -2 -37 -15 -59 -31 -55 -38 -107 -18 -137 21 -31
20 -35 -4 -35 -27 0 -49 38 -59 101 -6 35 -16 59 -30 70 -16 13 -19 24 -15 47
9 42 -10 72 -46 72 -37 0 -53 -28 -44 -77 6 -32 5 -35 -10 -30 -10 4 -31 7
-47 7 -29 0 -30 1 -23 35 8 43 -11 92 -38 101 -58 18 -96 -30 -78 -98 10 -34
9 -43 -6 -60 -13 -13 -18 -33 -16 -64 1 -24 -1 -44 -5 -44 -19 0 -73 66 -73
89 0 29 -35 170 -45 179 -3 3 -15 -3 -26 -15 -17 -17 -19 -24 -10 -42 7 -13 8
-21 2 -21 -6 0 -19 -10 -31 -22 -21 -23 -28 -82 -11 -93 6 -3 -3 -36 -20 -75
-16 -38 -29 -76 -29 -84 0 -28 31 -17 45 17 13 30 14 24 10 -73 -2 -58 -8
-125 -12 -150 -5 -25 -7 -75 -5 -112 3 -57 7 -68 22 -68 15 0 19 12 24 78 4
42 13 90 19 105 l12 28 32 -59 c18 -32 34 -74 35 -93 2 -19 9 -39 16 -44 10
-8 10 -30 1 -113 -12 -102 -12 -102 -39 -102 -27 0 -55 -21 -44 -33 16 -15
-26 1 -50 21 -31 24 -62 27 -113 13 -36 -10 -77 -47 -68 -61 4 -6 1 -10 -5
-10 -6 0 -8 -11 -5 -27 4 -23 4 -25 -4 -8 -5 11 -10 16 -11 10 0 -5 -8 4 -17
20 -9 17 -18 25 -20 18 -7 -19 -23 -16 -24 5 0 10 -3 12 -6 4 -9 -22 -23 -2
-23 34 0 20 -4 43 -9 52 -4 9 -11 38 -14 63 -6 43 -5 47 13 42 18 -5 20 0 20
41 0 48 32 151 68 221 l20 40 16 -55 c18 -65 48 -233 44 -252 -2 -9 11 -14 39
-16 41 -3 43 -2 34 20 -5 13 -14 64 -21 113 -6 50 -22 140 -35 200 -13 61 -26
144 -30 185 l-7 75 36 -52 c35 -51 64 -72 48 -35 -45 101 -75 153 -95 167 -24
16 -25 18 -11 51 11 27 12 43 4 74 -13 48 -46 62 -86 35 -23 -15 -25 -22 -22
-63 3 -26 8 -55 12 -64 12 -27 -34 -45 -74 -28 -28 12 -30 16 -30 66 0 63 -23
94 -68 94 -48 0 -66 -30 -59 -100 5 -55 3 -62 -19 -79 -13 -10 -28 -36 -33
-57 l-9 -39 -1 33 c-1 36 -26 92 -41 92 -5 0 -10 23 -12 51 -3 59 -25 83 -55
63 -14 -9 -18 -24 -16 -73 1 -33 -3 -61 -8 -61 -5 0 -13 -10 -18 -22 -13 -36
-21 -89 -13 -84 9 5 8 -195 -3 -256 -4 -27 -11 -48 -16 -48 -5 0 -9 5 -9 11 0
6 -11 25 -25 43 -14 18 -25 44 -25 57 0 34 -12 49 -43 51 -20 2 -28 9 -33 31
-3 16 -4 31 -1 33 3 3 26 -2 51 -10 26 -9 53 -16 61 -16 18 0 35 31 35 66 0
25 -1 26 -17 12 -10 -8 -30 -18 -46 -22 -24 -6 -28 -3 -43 34 -9 22 -25 45
-36 51 -15 8 -17 17 -12 43 8 47 -9 76 -47 76 -31 0 -31 0 -27 -50 3 -56 1
-57 -56 -32 l-40 18 -1 68 c-2 74 -16 96 -60 96 -41 0 -62 -26 -63 -77 -1 -26
4 -53 10 -60 9 -11 3 -21 -24 -46 -22 -20 -38 -46 -42 -67 -4 -19 -14 -67 -23
-107 -14 -61 -15 -81 -4 -130 22 -97 27 -104 40 -56 6 23 17 45 23 49 8 5 9
-28 5 -122 -7 -141 -37 -309 -55 -309 -19 0 -35 -23 -28 -40 3 -9 10 -14 15
-10 5 3 12 1 15 -4 7 -11 -17 -21 -53 -21 -19 0 -44 16 -83 53 -31 28 -74 66
-97 82 -22 17 -43 39 -47 50 -4 11 -7 67 -7 124 0 87 3 105 17 113 14 8 17 22
14 81 -2 49 1 72 10 75 15 5 15 30 0 104 -14 66 -7 81 20 47 l19 -23 18 35
c30 56 29 15 -1 -83 -27 -89 -28 -91 -8 -105 18 -13 20 -11 29 36 18 89 26 68
24 -64 -1 -87 2 -130 10 -133 7 -2 11 23 11 79 0 70 2 81 13 69 8 -8 22 -46
32 -85 30 -117 35 -108 31 53 -4 136 -3 153 11 148 25 -10 9 154 -17 172 -14
10 -18 22 -14 40 7 37 -11 82 -33 82 -32 0 -45 -17 -50 -65 -3 -26 -12 -49
-19 -52 -7 -3 -18 -20 -24 -39 l-12 -35 -34 31 c-19 16 -46 33 -59 36 -23 6
-25 10 -19 40 4 20 1 47 -6 64 -10 25 -18 30 -46 30 -43 0 -56 -24 -52 -97 4
-67 -16 -85 -25 -23 -3 23 -12 49 -19 58 -8 9 -15 30 -16 47 -3 38 -13 47 -48
43 -26 -3 -30 -8 -38 -50 -9 -50 -12 -54 -35 -39 -10 7 -14 25 -13 58 3 60 -7
76 -44 71 -26 -3 -29 -7 -32 -46 -2 -26 -8 -42 -14 -40 -6 2 -25 56 -43 119
-17 62 -35 124 -39 135 -6 21 -3 22 65 29 185 19 412 100 562 202 117 79 256
212 378 363 123 150 303 505 364 714 9 32 21 54 25 49 4 -4 25 -57 45 -118z
m-4250 95 c3 -5 -1 -10 -9 -10 -9 0 -16 5 -16 10 0 6 4 10 9 10 6 0 13 -4 16
-10z m-301 -17 c4 -10 -1 -27 -12 -42 -18 -25 -45 -41 -40 -24 1 4 -2 18 -6
31 -14 41 43 75 58 35z m9050 2 c9 -23 -3 -43 -35 -59 -16 -8 -27 -11 -24 -6
3 5 0 18 -7 29 -9 15 -9 23 1 35 17 20 57 21 65 1z m-7934 -33 c0 -9 -117
-157 -179 -228 -52 -59 -73 -85 -100 -124 -14 -19 -41 -53 -60 -76 -20 -22
-64 -74 -97 -115 -34 -41 -95 -114 -137 -164 -87 -104 -285 -286 -357 -327
-55 -31 -65 -25 -23 13 39 35 143 150 195 214 44 56 58 65 58 41 0 -8 3 -17 8
-19 4 -3 7 14 7 37 0 42 3 46 214 262 117 120 220 218 227 216 9 -2 12 3 8 13
-4 10 0 15 15 15 12 0 22 5 22 10 1 6 2 14 3 18 2 18 65 81 69 69 2 -7 9 -1
17 12 7 14 24 36 37 50 13 14 34 41 46 58 23 35 27 38 27 25z m6901 -122 c57
-63 205 -218 329 -343 124 -126 229 -238 233 -250 5 -12 6 -38 3 -57 l-6 -35
13 29 13 29 68 -84 c37 -46 91 -109 120 -139 82 -88 87 -97 36 -65 -62 39 -82
55 -184 148 -114 106 -129 122 -278 307 -217 271 -269 340 -262 352 4 6 3 8
-3 5 -10 -6 -65 52 -147 158 -87 110 -77 102 65 -55z m-7729 90 c-2 -16 -8
-30 -13 -30 -5 0 -9 14 -9 30 0 18 5 30 13 30 9 0 12 -10 9 -30z m5302 -498
c62 -94 142 -205 176 -249 54 -67 57 -72 21 -38 -141 132 -333 423 -436 660
-77 176 -60 166 34 -21 55 -109 137 -250 205 -352z m2383 367 c134 -172 335
-420 403 -499 31 -36 68 -81 82 -100 14 -19 40 -48 57 -65 17 -16 31 -40 31
-53 0 -26 -69 -103 -76 -85 -3 6 -24 37 -46 70 -23 32 -67 99 -98 149 -31 51
-86 136 -123 190 -37 55 -99 149 -138 209 -38 61 -92 142 -119 180 -51 72
-101 158 -82 140 5 -5 54 -67 109 -136z m-6852 82 c-8 -17 -20 -31 -25 -31 -6
0 -9 -3 -8 -7 3 -13 -32 -73 -42 -73 -6 0 -10 -6 -10 -13 0 -7 -9 -19 -19 -27
-11 -7 -17 -18 -14 -23 3 -6 1 -7 -5 -3 -6 3 -13 2 -17 -4 -3 -5 -1 -10 5 -10
6 0 8 -5 5 -10 -4 -6 -11 -8 -16 -5 -5 3 -6 -1 -3 -9 3 -9 1 -16 -5 -16 -21 0
-11 43 18 75 16 19 32 31 36 27 3 -3 4 0 1 8 -4 9 12 34 39 63 25 26 44 48 43
50 -3 4 26 46 30 42 2 -2 -4 -17 -13 -34z m2576 20 c-6 -10 -8 -20 -6 -23 10
-9 -145 -306 -207 -396 -56 -82 -206 -278 -224 -293 -10 -8 20 38 67 101 46
64 89 122 94 131 6 9 23 36 39 60 26 39 176 298 176 304 0 9 61 135 65 135 3
0 1 -8 -4 -19z m3769 -7 c0 -8 -7 -14 -15 -14 -15 0 -21 21 -9 33 10 9 24 -2
24 -19z m-4797 -8 c7 -19 -18 -40 -38 -32 -15 6 -20 28 -8 39 12 12 41 7 46
-7z m6342 4 c3 -5 1 -10 -4 -10 -6 0 -11 5 -11 10 0 6 2 10 4 10 3 0 8 -4 11
-10z m-8658 -72 c-2 -13 -4 -3 -4 22 0 25 2 35 4 23 2 -13 2 -33 0 -45z m40 0
c-2 -13 -4 -3 -4 22 0 25 2 35 4 23 2 -13 2 -33 0 -45z m762 2 c-32 -43 -44
-38 -14 6 14 20 26 42 26 48 1 6 3 3 6 -6 2 -9 -6 -31 -18 -48z m6726 -11 c78
-112 319 -476 460 -694 18 -27 49 -76 70 -108 21 -33 34 -62 29 -66 -5 -5 -33
-27 -63 -50 l-55 -43 -17 34 c-9 18 -49 107 -89 198 -39 91 -112 252 -161 358
-49 106 -86 198 -83 205 4 7 4 9 -1 5 -7 -6 -122 173 -139 217 -10 26 -2 18
49 -56z m-7351 36 c-4 -8 -10 -15 -15 -15 -5 0 -9 7 -9 15 0 8 7 15 15 15 9 0
12 -6 9 -15z m171 -35 c3 -5 -1 -10 -10 -10 -9 0 -13 5 -10 10 3 6 8 10 10 10
2 0 7 -4 10 -10z m7520 0 c18 -8 17 -9 -7 -9 -16 -1 -28 4 -28 9 0 12 8 12 35
0z m-8125 -21 c11 -7 4 -8 -25 -3 -50 8 -58 14 -19 14 16 0 36 -5 44 -11z
m161 1 c5 0 9 -11 9 -25 0 -24 -2 -26 -37 -19 -21 4 -47 13 -58 21 -19 14 -18
14 13 8 26 -5 32 -3 32 10 0 12 5 15 16 11 9 -3 20 -6 25 -6z m249 -1 c0 -8 4
-8 13 -1 18 14 60 9 64 -8 4 -13 3 -13 -6 0 -7 9 -11 10 -11 3 0 -6 5 -15 10
-18 7 -4 7 -13 0 -26 -14 -25 -54 -25 -80 1 -24 24 -27 60 -5 60 8 0 15 -5 15
-11z m668 -149 c2 -147 1 -164 -21 -218 -13 -32 -39 -107 -57 -167 -17 -61
-47 -159 -65 -220 -18 -60 -45 -153 -60 -205 -15 -52 -28 -100 -30 -107 -6
-19 -215 96 -215 117 0 9 105 248 165 375 13 28 67 144 121 258 54 115 107
221 118 235 11 14 15 23 9 19 -6 -4 -3 11 8 33 11 22 21 40 22 40 2 0 4 -72 5
-160z m7318 145 c12 -10 10 -43 -3 -56 -5 -4 -19 -9 -33 -11 -19 -2 -26 3 -35
26 -7 22 -7 30 3 34 6 2 10 7 7 11 -7 12 48 8 61 -4z m-622 -46 c29 -56 31
-63 16 -54 -5 3 -10 -2 -10 -11 0 -10 3 -15 6 -11 4 3 13 0 20 -8 16 -16 19
-29 4 -20 -6 3 -7 -1 -4 -9 3 -9 10 -14 15 -11 11 8 31 -33 23 -47 -4 -6 -3
-8 3 -5 12 8 73 -114 184 -368 48 -110 103 -236 122 -280 26 -57 33 -83 26
-92 -19 -22 -201 -115 -209 -106 -4 4 -22 62 -39 128 -18 66 -45 163 -61 215
-15 52 -44 151 -65 220 -20 69 -45 151 -56 184 -16 46 -19 83 -18 172 0 63 5
117 10 119 4 3 6 12 2 20 -13 35 8 11 31 -36z m356 41 c0 -5 -4 -10 -10 -10
-5 0 -10 5 -10 10 0 6 5 10 10 10 6 0 10 -4 10 -10z m30 -30 c0 -5 -4 -10 -10
-10 -5 0 -10 5 -10 10 0 6 5 10 10 10 6 0 10 -4 10 -10z m-7850 -10 c0 -5 -9
-10 -20 -10 -11 0 -20 5 -20 10 0 6 9 10 20 10 11 0 20 -4 20 -10z m40 -15 c0
-8 -4 -15 -10 -15 -5 0 -10 7 -10 15 0 8 5 15 10 15 6 0 10 -7 10 -15z m1124
-11 c20 -20 20 -48 0 -68 -19 -20 -24 -20 -52 0 -26 18 -28 41 -5 66 20 22 37
23 57 2z m7046 -4 c-8 -5 -22 -9 -30 -9 -10 0 -8 3 5 9 27 12 43 12 25 0z
m-1380 -15 c25 -30 -16 -79 -46 -54 -15 12 -19 51 -7 62 11 12 40 8 53 -8z
m-6170 -29 c-4 -12 -17 -39 -29 -61 -30 -59 -175 -371 -220 -472 -73 -168
-124 -273 -131 -273 -4 0 -33 19 -64 42 -36 27 -56 48 -53 58 2 8 27 49 56 90
29 41 112 166 185 277 74 111 137 199 141 195 3 -4 6 -2 5 3 -5 21 0 36 10 30
6 -3 10 1 10 9 0 9 5 16 10 16 6 0 9 6 8 13 -2 7 5 11 16 9 14 -3 17 1 13 12
-4 10 -1 16 9 16 10 0 14 6 10 15 -7 20 2 42 19 42 9 0 11 -6 5 -21z m6570 4
c13 0 20 -43 8 -57 -16 -20 -56 -16 -68 8 -9 16 -8 25 6 40 10 11 24 17 32 14
7 -3 17 -5 22 -5z m-6691 -7 c-3 -20 2 -34 11 -28 6 3 7 -1 4 -9 -3 -9 -9 -16
-13 -16 -4 0 -13 -11 -19 -25 -7 -14 -16 -31 -22 -38 -5 -7 -91 -135 -190
-284 -100 -150 -185 -273 -190 -273 -5 0 -25 20 -46 46 l-37 45 45 47 c78 83
284 326 367 435 24 31 47 54 52 51 5 -3 9 3 9 13 0 11 5 24 12 31 14 14 18 15
17 5z m1381 -74 c-7 -11 -14 -18 -17 -15 -3 3 0 12 7 21 18 21 23 19 10 -6z
m-432 -40 c4 -19 -27 -34 -41 -20 -14 14 0 43 20 39 10 -2 19 -10 21 -19z
m-708 -594 c0 -400 -1 -435 -17 -435 -24 0 -53 -30 -53 -54 0 -28 -11 -42 -36
-50 -35 -11 -43 13 -46 139 l-3 119 -32 10 c-18 5 -33 14 -33 20 0 14 48 177
93 321 20 61 50 160 67 220 31 106 46 145 55 145 3 0 5 -196 5 -435z m5150
400 c0 -32 -28 -45 -46 -21 -17 24 -7 46 22 46 19 0 24 -5 24 -25z m1562 -165
c11 -41 24 -88 29 -105 4 -16 17 -61 28 -100 90 -311 86 -289 51 -302 l-30
-11 7 -128 6 -127 -24 6 c-13 4 -32 7 -41 7 -14 0 -18 8 -18 33 0 40 -30 72
-60 64 -20 -5 -20 -2 -20 401 0 224 3 418 7 432 6 22 9 17 25 -35 11 -33 28
-94 40 -135z m-4347 160 c-10 -11 -21 -17 -24 -14 -3 3 3 12 13 20 28 20 32
17 11 -6z m-1717 -77 c-4 -22 -22 -20 -26 1 -2 10 3 16 13 16 10 0 15 -7 13
-17z m880 -9 c4 -29 -28 -41 -45 -18 -10 13 -10 21 -1 31 16 19 42 12 46 -13z
m6022 -101 c25 -23 60 -53 78 -68 17 -15 32 -33 32 -41 0 -8 60 -74 133 -146
72 -72 125 -128 117 -123 -133 78 -193 133 -367 337 -104 122 -139 175 -77
117 22 -20 59 -54 84 -76z m-1110 63 c0 -2 -7 -9 -15 -16 -12 -10 -15 -10 -15
4 0 9 7 16 15 16 8 0 15 -2 15 -4z m-1999 -44 c-7 -2 -18 1 -23 6 -8 8 -4 9
13 5 13 -4 18 -8 10 -11z m1722 -11 c6 -22 -9 -51 -27 -51 -21 0 -38 27 -31
50 8 26 51 27 58 1z m-5105 -163 c28 -28 1 -75 -37 -63 -29 9 -38 45 -15 62
22 16 36 17 52 1z m-660 -80 c18 -18 14 -46 -7 -58 -25 -13 -48 -4 -56 21 -12
38 35 65 63 37z m5261 -30 c6 -17 4 -26 -10 -35 -32 -23 -73 13 -48 43 18 21
49 17 58 -8z m-4899 -268 c0 -5 -4 -10 -10 -10 -5 0 -10 5 -10 10 0 6 5 10 10
10 6 0 10 -4 10 -10z m-2191 -112 c-1 -60 -2 -61 -10 -23 -11 55 -11 85 1 85
6 0 10 -27 9 -62z m179 34 c4 -29 -24 -51 -56 -46 -17 3 -31 -3 -48 -21 -12
-14 -28 -25 -34 -25 -11 0 -14 102 -3 114 4 4 37 6 73 4 59 -3 65 -5 68 -26z
m240 16 c10 -10 17 -10 32 0 19 11 20 10 20 -27 0 -31 -9 -49 -47 -96 l-48
-58 -6 39 c-8 56 -25 84 -54 84 -29 0 -55 -34 -55 -72 0 -35 -13 -35 -40 0
-18 22 -21 35 -16 75 3 26 8 52 11 57 9 15 188 13 203 -2z m284 -10 l15 -22
12 22 c10 19 20 22 78 22 l66 0 -7 -52 c-4 -28 -14 -67 -22 -87 -9 -20 -17
-46 -19 -59 -5 -43 -13 -34 -20 22 -6 42 -12 57 -26 61 -29 10 -57 -3 -66 -30
-12 -36 -33 -17 -44 41 -11 58 -20 68 -52 60 -20 -5 -26 -14 -31 -51 -6 -36
-11 -45 -27 -45 -17 0 -19 7 -19 64 0 42 4 66 13 69 6 3 40 6 73 6 53 1 64 -2
76 -21z m336 -30 l3 -48 -29 6 c-33 7 -34 5 -47 -103 -6 -46 -9 -51 -22 -38
-8 8 -19 15 -24 15 -5 0 -9 13 -9 29 0 16 -7 35 -16 42 -13 10 -15 24 -9 63
10 81 17 87 88 84 l62 -3 3 -47z m206 28 c9 -33 7 -171 -2 -160 -5 5 -16 34
-25 66 -18 59 -33 72 -73 62 -28 -7 -39 -40 -31 -84 8 -36 -11 -50 -30 -25 -8
12 -13 46 -13 92 l0 73 84 -1 c77 -2 85 -4 90 -23z m7196 -2 c6 -16 0 -30 -26
-59 -19 -21 -34 -42 -34 -47 0 -4 -4 -8 -10 -8 -5 0 -10 12 -10 28 0 34 -9 47
-39 57 -26 8 -41 -6 -41 -42 0 -12 -4 -25 -10 -28 -6 -4 -10 18 -10 59 l0 65
86 -2 c78 -2 88 -4 94 -23z m158 -9 c4 -53 -9 -59 -64 -33 -52 24 -64 35 -64
56 0 10 16 12 63 10 61 -3 62 -4 65 -33z m131 18 c9 -17 10 -17 28 0 16 14 39
17 126 17 79 0 107 -3 108 -12 0 -10 2 -10 6 0 2 6 9 12 14 12 13 0 11 -28 -3
-32 -7 -3 -11 -22 -9 -51 2 -53 -9 -64 -53 -47 -16 6 -33 24 -41 44 -8 19 -19
37 -24 40 -15 10 -41 -5 -41 -24 0 -9 -16 -37 -35 -61 -19 -24 -35 -50 -35
-58 0 -8 -3 -11 -7 -7 -4 4 -6 22 -5 40 4 41 -19 66 -58 66 -23 0 -30 5 -35
30 -4 16 -11 32 -16 35 -21 13 -7 25 31 25 27 0 42 -5 49 -17z m554 10 c3 -5
8 -32 12 -60 7 -51 6 -53 -17 -53 -12 0 -34 -9 -48 -20 -32 -25 -52 -25 -68 0
-6 11 -18 17 -25 14 -26 -9 -47 20 -53 74 l-5 52 100 0 c55 0 102 -3 104 -7z
m140 1 c37 -7 37 -7 37 -54 0 -42 -2 -46 -22 -45 -12 1 -24 7 -26 13 -2 6 -19
16 -39 23 -29 9 -37 9 -44 -2 -5 -8 -9 -9 -9 -3 0 6 -3 26 -6 43 -6 30 -6 31
32 31 22 0 56 -3 77 -6z m86 -51 c0 -42 -3 -52 -9 -38 -15 35 -11 95 7 95 2 0
3 -26 2 -57z m-6195 -191 c-3 -67 -10 -125 -15 -128 -11 -6 -12 116 -2 247 7
89 7 92 15 49 5 -25 6 -100 2 -168z m2920 -17 c3 -80 2 -129 -3 -114 -4 14
-11 95 -14 180 -3 91 -2 138 3 114 4 -22 10 -103 14 -180z m-2635 -253 c1 -93
3 -103 19 -100 13 2 19 18 25 66 5 34 13 62 18 62 5 0 9 -8 9 -17 0 -9 7 -24
16 -34 15 -17 15 -23 -10 -84 -33 -83 -33 -95 0 -95 26 0 27 -1 21 -47 -3 -27
-15 -75 -26 -108 -14 -41 -21 -94 -23 -170 -3 -101 -5 -110 -23 -113 -11 -2
-30 -8 -42 -14 -13 -6 -26 -8 -30 -5 -3 4 1 7 10 7 10 0 17 5 17 10 0 6 -6 10
-14 10 -8 0 -16 6 -19 13 -3 9 -11 9 -33 1 -38 -14 -53 -8 -47 16 5 18 0 20
-36 20 -40 0 -41 -1 -41 -35 l0 -36 -30 16 c-36 19 -40 19 -40 -1 0 -8 -5 -12
-11 -8 -6 3 -8 17 -4 31 3 15 2 22 -4 19 -5 -3 -11 -3 -14 1 -2 5 -3 3 -1 -4
5 -22 -9 -22 -27 0 -18 20 -19 20 -13 2 5 -16 3 -15 -12 5 -10 14 -17 30 -16
35 2 6 -2 5 -8 -1 -6 -7 -20 -9 -31 -7 -17 5 -17 7 -4 26 33 48 4 157 -42 157
-9 0 -13 6 -9 15 3 8 8 67 11 132 4 65 12 134 18 153 l10 35 23 -50 c36 -80
39 -120 15 -152 -13 -16 -18 -30 -12 -36 17 -17 44 -2 64 37 19 36 19 41 5 86
-17 54 -13 60 38 60 27 0 27 -1 28 95 1 54 4 70 15 70 36 0 32 -155 -9 -303
-18 -66 -28 -86 -46 -94 -42 -19 -29 -38 25 -38 45 0 49 2 54 29 3 15 23 74
43 130 36 97 38 100 49 73 26 -63 66 -223 60 -242 -6 -18 -2 -20 35 -20 39 0
42 2 36 23 -13 45 -75 313 -76 332 -4 41 -1 48 15 35 16 -14 20 -2 29 89 6 59
27 86 38 48 3 -12 6 -68 7 -125z m1224 81 c-10 -127 -21 -147 -22 -42 -1 53 2
99 6 102 17 18 22 1 16 -60z m-177 20 c-10 -10 -19 5 -10 18 6 11 8 11 12 0 2
-7 1 -15 -2 -18z m906 10 c21 -23 27 -57 33 -179 4 -86 2 -108 -14 -145 -17
-38 -20 -41 -20 -18 -1 15 -12 52 -26 84 -25 56 -25 58 -9 101 13 34 15 60 10
109 -7 67 -1 78 26 48z m434 -93 c-3 -19 -9 -61 -13 -93 -3 -32 -9 -60 -14
-62 -9 -6 -26 77 -32 162 l-5 62 35 -17 c32 -15 34 -19 29 -52z m3114 46 c0
-3 -4 -8 -10 -11 -5 -3 -10 -1 -10 4 0 6 5 11 10 11 6 0 10 -2 10 -4z m-7031
-26 c1 21 5 18 26 -23 14 -27 25 -55 25 -63 0 -19 -40 -137 -51 -148 -16 -18
-9 -26 21 -26 24 0 31 5 36 28 4 15 15 44 24 65 19 42 30 32 30 -27 0 -38 6
-47 26 -39 10 4 14 26 14 90 l0 85 25 -4 c14 -3 25 -1 25 6 0 6 5 4 10 -4 5
-8 10 -10 10 -4 0 6 11 12 25 12 14 0 25 -5 25 -10 0 -5 -4 -6 -10 -3 -5 3
-10 1 -10 -4 0 -6 5 -11 10 -11 8 0 9 -40 4 -125 l-7 -125 27 0 c14 0 26 6 26
13 1 47 30 209 42 232 l15 28 6 -24 c3 -13 11 -73 17 -134 6 -60 13 -111 14
-113 7 -6 55 21 50 29 -3 5 -1 9 5 9 20 0 22 -22 14 -167 -4 -81 -9 -137 -11
-124 -3 19 -6 21 -13 10 -7 -11 -9 -11 -9 4 0 9 -8 17 -17 17 -10 0 -28 3 -40
6 -18 5 -23 2 -23 -13 0 -17 -9 -21 -61 -27 -34 -3 -88 -6 -120 -6 -52 0 -59
2 -59 19 0 11 -3 27 -6 35 -6 15 -8 15 -21 -1 -13 -17 -14 -16 -8 7 13 49 5
94 -21 120 -20 21 -35 25 -87 27 -49 1 -64 5 -75 21 -14 22 -25 85 -12 77 4
-3 20 12 35 31 30 39 35 86 14 125 -6 11 -8 23 -5 27 3 3 6 1 6 -4 0 -5 14 -9
31 -10 27 -1 30 1 25 22 -4 13 -8 45 -11 72 -4 35 -2 41 4 22 l9 -25 1 25z
m-902 -37 c-3 -10 -5 -2 -5 17 0 19 2 27 5 18 2 -10 2 -26 0 -35z m-650 23 c1
-1 5 -26 8 -56 4 -35 3 -50 -3 -42 -6 9 -30 13 -78 11 -72 -3 -78 2 -83 57 -2
22 134 47 156 30z m6781 -68 c-3 -77 -2 -83 16 -83 16 0 23 12 34 68 8 37 20
66 25 64 6 -2 21 -43 34 -92 26 -97 36 -115 65 -115 15 0 18 4 13 18 -8 18
-24 194 -18 201 2 2 3 -1 3 -7 0 -8 13 -7 41 3 23 8 45 12 50 9 11 -7 11 -77
0 -126 -8 -35 -7 -38 14 -38 19 0 25 9 39 58 18 65 41 107 30 57 -3 -16 -12
-52 -19 -80 -8 -27 -19 -76 -25 -107 -6 -32 -15 -60 -20 -63 -5 -3 -32 1 -59
9 -92 27 -161 -14 -147 -88 4 -21 2 -37 -5 -41 -7 -5 -8 -19 -4 -39 4 -17 9
-49 12 -71 2 -22 9 -45 15 -52 7 -9 7 -13 -1 -13 -16 0 -44 57 -29 62 8 3 6 7
-4 11 -13 5 -16 0 -13 -29 2 -19 -1 -34 -6 -34 -5 0 -9 8 -9 18 0 10 -3 13 -8
6 -4 -7 -38 -11 -82 -11 -41 -1 -84 -3 -95 -5 -11 -3 -32 1 -47 8 -28 14 -110
19 -121 7 -9 -8 -53 -15 -90 -14 -22 0 -26 -3 -19 -12 8 -10 4 -12 -16 -11
-15 0 -27 6 -27 12 0 5 -3 14 -7 18 -5 4 -8 -1 -8 -11 0 -10 -3 -16 -6 -12
-14 14 8 45 31 45 22 0 24 -3 13 -16 -11 -13 -10 -15 5 -9 10 4 28 7 40 8 21
0 21 1 2 9 -11 5 -14 9 -7 9 9 1 12 40 12 161 0 194 21 213 44 40 4 -25 10
-66 15 -93 4 -26 8 -51 8 -55 0 -14 47 -32 57 -22 6 6 18 10 29 10 15 0 17 4
11 23 -15 44 -10 72 13 75 19 3 21 7 13 28 -15 40 -12 60 21 141 22 52 34 71
40 61 9 -16 36 -170 42 -237 4 -50 17 -59 73 -53 38 5 46 29 15 49 -14 9 -21
38 -35 145 -18 135 -18 186 -2 180 11 -5 26 18 26 40 0 21 18 68 25 68 3 0 5
-37 3 -82z m742 65 c0 -7 6 -13 14 -13 19 0 26 -35 19 -88 -4 -32 -2 -46 8
-53 24 -15 28 -11 40 51 13 69 25 77 34 23 13 -80 14 -83 41 -83 20 0 23 3 15
18 -5 9 -11 49 -12 87 -3 57 -1 70 11 70 10 0 17 -14 20 -46 3 -26 11 -53 18
-61 8 -11 9 -30 2 -73 -5 -32 -11 -59 -13 -61 -2 -2 -12 5 -22 16 -31 34 -151
25 -177 -14 -4 -6 -8 -26 -8 -44 0 -18 -4 -42 -10 -52 -7 -13 -6 -22 3 -32 8
-7 16 -37 20 -67 5 -45 4 -52 -9 -47 -8 3 -13 2 -10 -2 3 -5 -5 -19 -18 -33
-13 -14 -26 -31 -29 -39 -4 -13 -6 -13 -6 1 -1 8 4 20 11 27 9 9 9 12 0 12 -7
0 -12 -5 -12 -11 0 -5 -4 -8 -9 -5 -4 3 -6 -7 -4 -22 3 -18 2 -23 -5 -14 -7
10 -28 11 -87 6 -64 -6 -84 -12 -102 -31 -27 -26 -53 -30 -53 -8 0 16 -31 19
-65 6 -23 -9 -75 6 -75 21 0 6 6 5 15 -2 10 -9 15 -9 15 -1 0 6 -4 11 -8 11
-5 0 -17 7 -28 16 -10 8 -13 13 -6 9 6 -3 12 -4 12 -1 0 2 3 13 6 23 5 15 4
15 -5 3 -16 -22 -13 2 4 43 8 20 15 54 15 75 0 32 5 41 25 50 16 7 25 20 25
34 0 32 41 170 54 186 9 9 19 -8 41 -75 16 -49 29 -99 29 -112 1 -25 23 -35
46 -21 11 7 9 25 -8 92 -25 94 -31 233 -9 226 7 -3 16 -36 21 -82 7 -63 11
-76 25 -74 11 3 15 13 14 38 -2 28 0 31 7 15 8 -19 9 -18 9 4 1 31 11 21 21
-21 l7 -33 7 36 c6 30 13 38 37 43 20 4 29 11 29 25 0 41 17 67 44 67 15 0 26
-6 26 -13z m-3844 -61 c-13 -12 -17 8 -10 40 l9 33 3 -33 c2 -19 1 -36 -2 -40z
m4251 49 c27 -11 31 -17 28 -40 -17 -109 -17 -111 9 -111 22 0 24 6 36 79 7
49 18 82 26 85 24 9 30 -52 18 -186 -5 -59 -3 -69 16 -88 21 -21 21 -24 7 -59
-20 -47 -28 -131 -17 -170 8 -28 7 -31 -13 -27 -12 1 -16 1 -9 -1 13 -5 16
-16 6 -26 -7 -7 -28 11 -37 33 -4 8 -4 -1 -1 -20 3 -19 2 -30 -3 -25 -8 10
-33 16 -65 16 -10 0 -18 6 -18 14 0 8 -16 14 -44 16 -34 3 -42 1 -38 -10 4
-10 1 -12 -7 -7 -7 5 -11 17 -8 27 3 11 2 17 -3 14 -4 -3 -14 2 -21 11 -7 8
-25 22 -41 30 -27 14 -39 44 -17 44 5 0 8 4 4 9 -3 6 3 15 14 21 12 6 18 16
15 25 -6 16 8 94 26 140 l12 30 15 -40 c30 -82 37 -117 25 -135 -14 -23 -6
-30 36 -30 l34 0 -6 43 c-4 23 -15 78 -26 122 -27 108 -36 201 -21 219 14 16
23 16 68 -3z m-8222 -136 c-9 -69 -15 -129 -11 -132 3 -3 12 -1 20 6 14 12 28
57 46 154 7 32 16 57 22 55 6 -2 19 -26 30 -53 11 -28 26 -57 34 -66 10 -11
13 -26 8 -44 -4 -17 -2 -30 6 -35 9 -6 9 -13 -3 -31 -9 -13 -19 -46 -22 -74
-8 -61 -55 -171 -66 -154 -4 8 -11 -3 -18 -28 -13 -46 -26 -60 -58 -57 -12 0
-20 -3 -17 -8 3 -5 1 -14 -4 -21 -6 -7 -12 -21 -15 -32 -2 -11 -3 -3 -1 18 3
20 1 37 -4 37 -5 0 -18 9 -30 20 -12 11 -25 21 -29 21 -5 0 -7 7 -6 16 1 11
-2 12 -9 5 -8 -8 -6 -19 6 -36 9 -15 12 -26 6 -26 -5 0 -10 5 -10 11 0 5 -5 7
-12 3 -7 -4 -8 -3 -4 4 4 6 2 21 -5 33 -9 17 -8 20 2 14 9 -6 11 -3 6 8 -3 9
-3 16 1 15 12 -3 71 36 77 50 2 7 0 20 -5 30 -15 26 -60 229 -60 270 l1 37 20
-27 c13 -18 30 -28 47 -28 l25 0 -21 23 c-12 13 -22 35 -22 49 0 32 24 91 33
81 4 -3 7 2 7 11 0 12 5 16 15 12 8 -3 15 0 15 6 0 9 3 9 11 1 9 -9 7 -43 -6
-138z m6600 -118 c0 -152 -4 -237 -10 -237 -5 1 -29 11 -51 23 l-41 22 2 95
c5 247 3 230 24 230 19 0 31 25 31 66 0 23 19 46 35 41 6 -2 10 -86 10 -240z
m-6154 224 c3 -1 2 -25 -2 -53 -4 -29 -11 -77 -15 -106 -11 -84 -43 -82 -84 5
-18 39 -20 50 -9 74 11 28 29 39 29 19 0 -5 5 -10 10 -10 6 0 10 6 10 14 0 33
19 64 37 61 10 -2 21 -4 24 -4z m526 -160 c5 -155 1 -181 -24 -148 -10 13 -36
154 -37 197 0 14 -5 28 -11 32 -12 9 16 66 29 58 4 -3 12 3 18 13 5 10 12 16
15 14 2 -3 7 -77 10 -166z m1320 147 c-3 -8 -6 -5 -6 6 -1 11 2 17 5 13 3 -3
4 -12 1 -19z m370 -27 c15 -51 29 -71 52 -71 16 0 16 -8 2 -110 -14 -106 -16
-110 -43 -119 -15 -6 -28 -15 -28 -21 0 -14 44 -30 84 -30 31 0 32 2 35 43 1
23 6 58 11 77 47 185 55 204 64 149 12 -71 11 -229 0 -229 -7 0 -22 -8 -35
-19 -19 -15 -23 -28 -22 -70 0 -28 -3 -54 -8 -57 -5 -3 -9 -16 -9 -30 0 -28
-24 -42 -44 -25 -8 7 -25 9 -40 5 -15 -3 -26 -2 -26 4 0 5 -12 12 -26 15 -20
3 -28 0 -31 -14 -3 -11 -9 -19 -14 -19 -12 0 -11 27 1 35 15 10 12 25 -4 19
-8 -3 -17 -13 -19 -22 -2 -10 -7 42 -11 113 -4 72 -9 139 -11 151 -3 14 5 27
27 44 l31 23 -7 98 c-6 102 -5 107 39 105 14 -1 23 -13 32 -45z m3520 33 c3
-9 0 -20 -7 -24 -11 -7 -5 -19 24 -55 l39 -47 51 6 52 6 -4 -39 c-3 -31 0 -42
19 -54 l22 -16 -24 -11 c-35 -16 -55 -65 -41 -102 6 -18 7 -39 3 -52 -11 -26
8 -56 35 -57 11 0 13 -3 7 -6 -7 -2 -13 -11 -13 -18 0 -19 -30 -47 -45 -41 -7
2 -12 -2 -11 -11 0 -8 -8 -20 -19 -27 -11 -6 -25 -17 -31 -25 -10 -12 -17 -12
-53 2 -22 9 -41 14 -41 11 0 -4 -7 -1 -15 6 -13 11 -14 10 -9 -4 3 -9 2 -16
-4 -16 -16 0 -72 -62 -65 -73 3 -6 1 -7 -5 -4 -5 4 -8 15 -5 25 3 15 -5 20
-49 29 -45 9 -56 9 -72 -6 -18 -15 -19 -15 -13 3 6 14 3 17 -8 12 -8 -3 -15
-1 -15 4 0 5 -8 6 -17 3 -16 -6 -17 -5 -3 12 14 17 14 18 -7 7 -25 -14 -36
-15 -30 -4 3 4 -12 7 -34 7 -24 1 -34 -2 -26 -8 7 -5 -3 -6 -25 -4 -26 3 -35
1 -32 -8 3 -6 -3 -18 -13 -26 -16 -13 -17 -12 -4 4 12 15 11 17 -2 17 -8 0
-18 -6 -20 -12 -3 -8 -6 -5 -6 5 -1 10 -5 16 -10 13 -4 -3 -3 15 2 39 9 41 8
47 -11 65 -11 11 -40 57 -63 102 -33 67 -42 96 -46 153 -3 53 -1 75 10 90 18
23 21 18 32 -47 3 -22 12 -38 19 -38 16 0 26 52 26 145 0 81 9 77 40 -17 22
-69 39 -83 60 -50 10 15 11 15 4 -3 -4 -11 -22 -61 -39 -112 -17 -50 -39 -101
-48 -111 -16 -18 -16 -20 -2 -26 9 -3 31 -6 49 -6 29 0 32 3 33 33 0 18 16 64
34 102 l33 70 28 -85 c15 -47 27 -100 28 -117 0 -31 2 -33 36 -33 33 0 36 2
31 23 -34 150 -47 225 -42 244 8 32 18 23 51 -42 16 -30 31 -55 35 -55 17 0
67 74 82 123 18 54 33 85 39 77 2 -3 28 -45 58 -94 45 -75 51 -92 42 -107 -17
-27 -15 -29 18 -29 28 0 30 2 30 39 0 27 -11 57 -35 97 -20 33 -34 67 -31 77
2 9 0 15 -5 11 -5 -3 -9 2 -9 10 0 8 5 18 10 21 6 4 8 15 5 26 -8 23 13 26 22
3z m-5479 -24 c20 0 23 -18 12 -87 -17 -105 -15 -191 6 -214 10 -11 26 -19 37
-17 17 3 20 14 23 87 4 96 23 206 34 194 8 -9 41 -181 44 -225 0 -14 4 -24 9
-21 4 2 7 -6 7 -18 0 -20 4 -21 40 -16 26 3 40 1 41 -6 0 -7 4 -3 9 8 8 19 9
18 9 -4 1 -14 7 -32 15 -40 7 -9 18 -35 23 -58 8 -33 8 -40 -3 -36 -9 3 -11
-3 -8 -19 2 -13 1 -17 -2 -10 -5 10 -9 10 -20 1 -8 -7 -17 -9 -21 -5 -4 3 2
12 12 20 17 12 16 13 -12 12 -30 -1 -40 -22 -18 -38 5 -4 6 -10 2 -14 -4 -4
-15 -1 -24 7 -33 26 -62 39 -68 29 -3 -5 -52 -7 -111 -5 -87 3 -109 7 -119 22
-13 17 -14 17 -34 -1 -19 -17 -21 -18 -21 -2 0 9 5 14 10 11 6 -3 10 -4 10 -1
0 2 3 13 6 23 5 15 4 16 -5 3 -9 -13 -12 -11 -17 8 -5 18 -9 20 -15 10 -7 -10
-9 -10 -9 2 0 8 -18 35 -41 60 -50 56 -76 103 -60 108 6 2 11 14 11 27 0 37
40 156 50 150 6 -4 10 -25 11 -48 1 -59 12 -91 32 -95 14 -3 17 10 19 105 l3
108 37 0 c20 0 40 3 44 8 4 4 15 0 24 -8 9 -8 22 -15 28 -15z m495 4 c28 5 37
-8 37 -50 0 -13 5 -24 11 -24 15 0 7 -40 -20 -103 l-20 -47 -38 20 c-44 24
-87 25 -126 5 -27 -14 -28 -14 -21 8 8 29 36 60 43 49 3 -5 17 -15 30 -21 33
-18 47 -2 33 38 -9 25 -8 31 2 31 20 0 24 19 16 73 -6 44 -6 46 10 32 10 -9
28 -14 43 -11z m1534 -39 c-1 -21 -4 -30 -9 -22 -11 17 -10 69 1 63 5 -3 9
-22 8 -41z m3250 29 c13 -13 17 -13 24 -2 15 23 10 -9 -12 -83 -12 -38 -25
-69 -30 -69 -5 0 -9 38 -9 85 0 47 3 85 6 85 3 0 13 -7 21 -16z m327 -8 c12
31 16 8 5 -25 -6 -17 -20 -36 -32 -42 -17 -10 -23 -7 -38 12 -23 30 -23 38 -2
61 16 18 17 18 38 -2 20 -19 23 -20 29 -4z m-1703 -50 c3 -21 12 -41 18 -46
10 -5 11 -48 5 -179 -7 -167 -8 -173 -31 -188 -13 -9 -22 -22 -19 -29 6 -16
-25 -25 -69 -22 -28 3 -30 5 -27 38 3 26 -7 57 -32 110 -38 78 -42 106 -26
190 10 53 29 83 61 101 15 7 16 1 11 -61 -4 -60 -2 -70 12 -70 11 0 16 9 16
26 0 14 10 59 23 100 25 84 47 96 58 30z m-418 7 c-3 -10 -3 -15 1 -11 5 4 19
3 32 -2 20 -8 24 -6 25 8 0 14 2 14 9 -3 5 -11 9 -23 9 -26 1 -9 -53 -63 -78
-77 -30 -18 -41 -4 -41 55 0 32 5 46 22 57 28 20 29 20 21 -1z m-2476 -30
c-11 -10 -26 8 -20 23 5 15 7 14 15 -1 6 -9 7 -19 5 -22z m5109 -67 c-12 -41
-22 -73 -24 -71 -8 7 -11 125 -3 125 5 0 12 12 16 27 6 25 8 26 19 11 10 -14
9 -31 -8 -92z m-4513 4 c-7 -28 -13 -25 -13 6 0 14 4 23 9 20 5 -3 7 -15 4
-26z m234 -2 c-3 -7 -5 -2 -5 12 0 14 2 19 5 13 2 -7 2 -19 0 -25z m-1112 10
c11 -3 32 -9 48 -12 34 -8 35 -36 7 -138 -11 -40 -20 -99 -20 -131 0 -36 -4
-56 -10 -52 -6 4 -10 -6 -11 -22 -1 -27 -1 -27 -8 -4 -9 32 -31 40 -24 9 3
-16 2 -19 -4 -10 -5 7 -17 10 -26 6 -10 -3 -23 -2 -30 4 -7 6 -31 7 -59 3 -53
-9 -59 -7 -51 17 4 14 3 15 -6 2 -17 -25 -23 -4 -25 89 -2 79 0 90 16 94 10 3
22 18 28 34 21 58 43 103 51 103 4 0 18 -33 30 -72 28 -88 34 -97 60 -91 30 8
31 16 9 95 -27 96 -28 92 25 76z m285 8 c0 -3 -4 -8 -10 -11 -5 -3 -10 -1 -10
4 0 6 5 11 10 11 6 0 10 -2 10 -4z m3745 -98 c5 -54 14 -85 35 -118 34 -54 68
-127 72 -155 3 -17 -3 -20 -42 -21 -25 -1 -65 -3 -90 -5 l-45 -4 -12 49 c-10
40 -9 64 7 150 19 105 37 159 51 151 4 -3 5 5 1 17 -3 13 -1 19 5 15 6 -4 14
-40 18 -79z m-1177 48 c2 -30 -24 -54 -40 -38 -8 8 -5 18 13 36 13 14 24 26
24 26 0 0 2 -11 3 -24z m4739 -18 c-3 -8 -6 -5 -6 6 -1 11 2 17 5 13 3 -3 4
-12 1 -19z m-9178 -83 c20 -68 19 -100 -5 -109 -8 -3 -14 -12 -14 -20 0 -44
-45 -8 -55 43 -5 27 36 151 50 151 2 0 13 -29 24 -65z m4434 -30 c-7 -27 -13
-75 -13 -106 0 -31 -7 -70 -15 -85 -12 -23 -15 -25 -15 -10 0 20 0 20 -16 0
-15 -19 -15 -18 -9 3 3 12 1 30 -4 40 -15 26 -51 210 -45 227 9 23 44 23 89 1
l41 -20 -13 -50z m-183 -24 c12 -46 19 -90 16 -97 -3 -8 -1 -14 4 -14 6 0 10
-16 10 -35 0 -26 4 -35 18 -36 13 0 14 -2 2 -6 -8 -4 -19 -12 -25 -19 -17 -21
-71 -27 -87 -10 -12 11 -18 12 -28 3 -10 -10 -12 -8 -6 7 5 14 3 17 -11 12
-15 -6 -16 -5 -1 11 8 10 18 45 22 78 6 53 27 153 42 194 8 25 22 -2 44 -88z
m-2450 49 c32 -45 49 -109 43 -162 -4 -32 -2 -48 6 -48 6 0 11 -9 11 -20 0
-11 -7 -20 -15 -20 -8 0 -15 3 -15 8 0 8 -52 8 -66 -1 -6 -3 -16 -1 -24 5 -12
8 -12 9 3 4 23 -7 22 15 -4 48 -11 14 -17 26 -14 26 4 0 2 6 -4 14 -12 14 -7
55 15 127 17 53 36 58 64 19z m3100 23 c0 -5 9 -64 21 -132 14 -87 17 -127 10
-134 -8 -8 -11 -5 -11 8 0 17 -2 18 -11 5 -8 -12 -12 -12 -16 -2 -4 10 -8 10
-19 2 -11 -10 -12 6 -9 96 5 119 12 164 26 164 5 0 9 -3 9 -7z m-2323 -120
c-2 -16 -4 -3 -4 27 0 30 2 43 4 28 2 -16 2 -40 0 -55z m1156 -50 c0 -7 4 -10
9 -7 5 3 26 -12 48 -32 41 -39 39 -54 -6 -54 -12 0 -27 -7 -34 -15 -21 -26
-40 -18 -41 18 -2 31 -2 31 -9 -8 -7 -36 -8 -38 -15 -16 l-8 23 -14 -23 c-13
-22 -13 -21 -7 21 4 25 8 71 8 103 1 75 21 91 49 39 10 -21 19 -42 20 -49z
m842 -65 c1 -15 -4 -29 -12 -32 -7 -3 -12 -2 -12 2 4 23 -4 24 -17 2 l-15 -25
7 25 c5 20 4 23 -7 13 -15 -15 -43 -17 -34 -3 3 6 2 10 -4 10 -6 0 -8 6 -6 13
4 10 11 71 14 125 1 7 6 10 11 7 6 -3 10 0 11 7 1 21 61 -115 64 -144z m4144
125 c0 -5 -4 -17 -9 -28 -8 -18 -9 -17 -9 8 -1 15 4 27 9 27 6 0 10 -3 9 -7z
m35 -78 c-4 -8 -13 -15 -22 -15 -13 0 -12 3 4 15 24 18 25 18 18 0z m-6647
-17 c-3 -8 -6 -5 -6 6 -1 11 2 17 5 13 3 -3 4 -12 1 -19z m6596 5 c-3 -7 -6
-13 -8 -13 -2 0 -5 6 -8 13 -3 8 1 14 8 14 7 0 11 -6 8 -14z m-7335 -22 c26
-22 27 -27 8 -34 -11 -4 -13 -1 -9 10 5 12 1 14 -15 9 -11 -4 -23 -2 -27 3 -3
7 0 8 9 5 9 -3 16 -2 16 4 0 6 -6 13 -12 15 -8 3 -8 6 -2 6 6 1 21 -7 32 -18z
m372 -7 c0 -8 -4 -12 -10 -9 -5 3 -10 10 -10 16 0 5 5 9 10 9 6 0 10 -7 10
-16z m827 -21 c-3 -10 -5 -4 -5 12 0 17 2 24 5 18 2 -7 2 -21 0 -30z m6691 12
c-3 -3 -9 2 -12 12 -6 14 -5 15 5 6 7 -7 10 -15 7 -18z m-2249 -4 c12 -8 9
-11 -12 -16 -15 -4 -35 -4 -44 0 -16 7 -15 9 7 15 34 11 33 11 49 1z m2278
-13 c-3 -8 -6 -5 -6 6 -1 11 2 17 5 13 3 -3 4 -12 1 -19z m-2822 2 c-3 -5 -11
-10 -16 -10 -6 0 -7 5 -4 10 3 6 11 10 16 10 6 0 7 -4 4 -10z m-1085 -9 c0 -5
12 -11 28 -13 l27 -3 -26 -6 c-19 -4 -29 -1 -38 13 -7 11 -7 18 -1 18 5 0 10
-4 10 -9z m1918 5 c-2 0 -16 -12 -33 -26 l-30 -25 20 24 c18 22 18 24 2 18
-10 -4 -16 -3 -13 2 3 5 17 9 31 9 14 0 25 -1 23 -2z m1160 -27 c-3 -8 -7 -3
-11 10 -4 17 -3 21 5 13 5 -5 8 -16 6 -23z m-8372 -14 c3 -20 4 -39 0 -42 -3
-4 -6 5 -6 20 0 14 -4 29 -10 32 -13 8 -13 25 0 25 5 0 12 -16 16 -35z m2108
24 c3 -3 2 -10 -3 -17 -5 -9 -19 -7 -56 7 l-50 19 52 -2 c29 -1 55 -4 57 -7z
m401 1 c-3 -5 -12 -10 -18 -10 -7 0 -6 4 3 10 19 12 23 12 15 0z m2955 -22 c0
-6 -6 -5 -15 2 -8 6 -20 8 -27 4 -10 -6 -9 -3 1 9 10 13 17 15 27 6 8 -6 14
-16 14 -21z m-5390 12 c0 -5 -4 -10 -10 -10 -5 0 -10 5 -10 10 0 6 5 10 10 10
6 0 10 -4 10 -10z m1675 0 c3 -5 -1 -10 -9 -10 -9 0 -16 5 -16 10 0 6 4 10 9
10 6 0 13 -4 16 -10z m925 6 c0 -3 -4 -8 -10 -11 -5 -3 -10 -1 -10 4 0 6 5 11
10 11 6 0 10 -2 10 -4z m2725 -6 c-3 -5 -16 -10 -28 -9 -20 1 -20 2 3 9 14 4
26 8 28 9 2 1 0 -3 -3 -9z m-3378 -6 c-3 -3 -12 -4 -19 -1 -8 3 -5 6 6 6 11 1
17 -2 13 -5z m3643 -8 c-7 -7 -13 -7 -20 0 -6 6 -3 10 10 10 13 0 16 -4 10
-10z m1010 4 c0 -5 -4 -10 -10 -10 -5 0 -10 5 -10 10 0 6 5 10 10 10 6 0 10
-4 10 -10z m-4610 -10 c8 -5 11 -10 5 -10 -5 0 -17 5 -25 10 -8 5 -10 10 -5
10 6 0 17 -5 25 -10z m480 -5 c0 -8 -2 -15 -4 -15 -2 0 -6 7 -10 15 -3 8 -1
15 4 15 6 0 10 -7 10 -15z m1282 -7 c-7 -7 -12 -8 -12 -2 0 14 12 26 19 19 2
-3 -1 -11 -7 -17z m-235 -20 c-3 -7 -5 -2 -5 12 0 14 2 19 5 13 2 -7 2 -19 0
-25z m1851 15 c2 -7 -1 -13 -8 -13 -6 0 -9 4 -5 9 3 5 -5 12 -17 14 -22 5 -21
5 1 4 14 -1 26 -8 29 -14z m584 0 c4 -14 -2 -18 -21 -19 -14 -1 -20 1 -13 3 6
3 12 11 12 19 0 20 17 17 22 -3z m-3505 1 c-3 -3 -12 -4 -19 -1 -8 3 -5 6 6 6
11 1 17 -2 13 -5z m3203 -4 c0 -5 -2 -10 -4 -10 -3 0 -8 5 -11 10 -3 6 -1 10
4 10 6 0 11 -4 11 -10z m-1617 -30 c3 -11 1 -18 -4 -14 -5 3 -9 12 -9 20 0 20
7 17 13 -6z m3074 -12 c-3 -8 -6 -5 -6 6 -1 11 2 17 5 13 3 -3 4 -12 1 -19z
m-1167 -113 c0 -5 -5 -3 -10 5 -5 8 -10 20 -10 25 0 6 5 3 10 -5 5 -8 10 -19
10 -25z m-180 -651 c0 -8 -5 -12 -10 -9 -6 4 -8 11 -5 16 9 14 15 11 15 -7z"/>
<path d="M8827 10065 c3 -8 9 -12 14 -9 12 7 11 11 -5 17 -10 4 -13 1 -9 -8z"/>
<path d="M3248 7963 c7 -3 16 -2 19 1 4 3 -2 6 -13 5 -11 0 -14 -3 -6 -6z"/>
<path d="M7790 9899 c0 -5 5 -7 10 -4 6 3 10 8 10 11 0 2 -4 4 -10 4 -5 0 -10
-5 -10 -11z"/>
<path d="M7781 9864 c0 -11 3 -14 6 -6 3 7 2 16 -1 19 -3 4 -6 -2 -5 -13z"/>
<path d="M5828 8283 c7 -3 16 -2 19 1 4 3 -2 6 -13 5 -11 0 -14 -3 -6 -6z"/>
<path d="M8909 7483 c-13 -16 -12 -17 4 -4 9 7 17 15 17 17 0 8 -8 3 -21 -13z"/>
<path d="M931 7893 c7 -12 15 -20 18 -17 3 2 -3 12 -13 22 -17 16 -18 16 -5
-5z"/>
<path d="M8537 6259 c7 -7 15 -10 18 -7 3 3 -2 9 -12 12 -14 6 -15 5 -6 -5z"/>
<path d="M5430 5204 c0 -8 5 -12 10 -9 6 4 8 11 5 16 -9 14 -15 11 -15 -7z"/>
<path d="M6350 4729 c0 -5 5 -7 10 -4 6 3 10 8 10 11 0 2 -4 4 -10 4 -5 0 -10
-5 -10 -11z"/>
<path d="M6380 4732 c0 -5 7 -9 15 -9 8 0 12 4 9 9 -3 4 -9 8 -15 8 -5 0 -9
-4 -9 -8z"/>
<path d="M2730 4559 c0 -5 -4 -8 -9 -5 -5 4 -7 -4 -3 -16 3 -13 1 -19 -5 -15
-7 5 -9 0 -6 -13 7 -25 23 -26 23 -1 0 30 11 52 23 44 6 -3 7 -1 3 5 -9 15
-26 16 -26 1z"/>
<path d="M5954 3596 c1 -14 4 -28 7 -31 3 -3 5 6 5 19 -1 14 -4 28 -7 31 -3 3
-5 -6 -5 -19z"/>
<path d="M6055 3510 c3 -5 8 -10 11 -10 2 0 4 5 4 10 0 6 -5 10 -11 10 -5 0
-7 -4 -4 -10z"/>
<path d="M6117 3766 c-3 -8 1 -20 9 -26 8 -7 14 -9 14 -4 0 4 7 -1 15 -12 8
-10 15 -14 15 -8 0 12 -17 30 -35 36 -5 1 -9 9 -7 16 4 17 -5 15 -11 -2z"/>
<path d="M4351 2494 c0 -11 3 -14 6 -6 3 7 2 16 -1 19 -3 4 -6 -2 -5 -13z"/>
<path d="M1565 4220 c-16 -16 -24 -30 -18 -30 7 0 21 14 33 30 12 17 20 30 18
30 -3 0 -17 -13 -33 -30z"/>
<path d="M1456 4103 c-6 -14 -5 -15 5 -6 7 7 10 15 7 18 -3 3 -9 -2 -12 -12z"/>
<path d="M1745 4130 c-3 -5 -3 -15 1 -22 4 -6 3 -8 -3 -5 -10 7 -63 -87 -63
-111 0 -7 9 -12 20 -12 18 0 19 3 10 20 -8 14 -8 26 -1 38 9 14 10 13 8 -8 -1
-19 3 -25 20 -26 19 -1 21 2 12 19 -6 10 -7 17 -2 14 5 -3 10 19 11 49 2 53
-1 64 -13 44z m-5 -70 c0 -5 -2 -10 -4 -10 -3 0 -8 5 -11 10 -3 6 -1 10 4 10
6 0 11 -4 11 -10z"/>
<path d="M8491 4054 c0 -11 3 -14 6 -6 3 7 2 16 -1 19 -3 4 -6 -2 -5 -13z"/>
<path d="M8245 4070 c-3 -5 -1 -10 4 -10 6 0 11 5 11 10 0 6 -2 10 -4 10 -3 0
-8 -4 -11 -10z"/>
<path d="M1540 4059 c0 -5 5 -7 10 -4 6 3 10 8 10 11 0 2 -4 4 -10 4 -5 0 -10
-5 -10 -11z"/>
<path d="M7687 2009 c4 -13 8 -18 11 -10 2 7 -1 18 -6 23 -8 8 -9 4 -5 -13z"/>
<path d="M570 1965 c0 -8 2 -15 4 -15 2 0 6 7 10 15 3 8 1 15 -4 15 -6 0 -10
-7 -10 -15z"/>
<path d="M595 1949 c-11 -17 1 -21 15 -4 8 9 8 15 2 15 -6 0 -14 -5 -17 -11z"/>
<path d="M6525 1910 c-3 -6 1 -7 9 -4 18 7 21 14 7 14 -6 0 -13 -4 -16 -10z"/>
<path d="M5117 1953 c-14 -13 -7 -23 16 -22 19 1 19 2 3 6 -15 4 -16 7 -5 14
8 5 9 9 3 9 -6 0 -14 -3 -17 -7z"/>
<path d="M2234 1959 c-3 -6 -2 -15 3 -20 5 -5 9 -1 9 11 0 23 -2 24 -12 9z"/>
<path d="M5336 1998 c3 -5 10 -6 15 -3 13 9 11 12 -6 12 -8 0 -12 -4 -9 -9z"/>
<path d="M4170 1935 c-10 -13 -10 -15 6 -14 11 1 33 5 49 9 23 6 25 8 8 9 -12
0 -28 3 -36 6 -7 3 -20 -1 -27 -10z"/>
<path d="M2598 1903 c7 -3 16 -2 19 1 4 3 -2 6 -13 5 -11 0 -14 -3 -6 -6z"/>
<path d="M1600 5089 c0 -5 5 -7 10 -4 6 3 10 8 10 11 0 2 -4 4 -10 4 -5 0 -10
-5 -10 -11z"/>
<path d="M1610 5069 c-11 -8 -12 -12 -2 -16 6 -2 12 -17 13 -31 l1 -27 7 25
c4 14 4 30 -1 37 -5 7 -4 13 4 16 7 3 9 6 3 6 -5 0 -17 -4 -25 -10z"/>
<path d="M1660 4949 c7 -8 25 -16 39 -17 33 -3 16 14 -23 24 -26 6 -28 5 -16
-7z"/>
<path d="M775 4520 c33 -16 67 -30 75 -29 17 1 -72 44 -110 53 -14 3 2 -8 35
-24z"/>
<path d="M1145 4350 c3 -5 10 -10 16 -10 5 0 9 5 9 10 0 6 -7 10 -16 10 -8 0
-12 -4 -9 -10z"/>
<path d="M1350 4285 c0 -8 2 -15 4 -15 2 0 6 7 10 15 3 8 1 15 -4 15 -6 0 -10
-7 -10 -15z"/>
<path d="M1415 4240 c-8 -13 5 -13 25 0 13 8 13 10 -2 10 -9 0 -20 -4 -23 -10z"/>
<path d="M918 4153 c7 -3 16 -2 19 1 4 3 -2 6 -13 5 -11 0 -14 -3 -6 -6z"/>
<path d="M170 3890 c0 -12 57 -13 64 -2 3 5 -10 9 -29 10 -19 1 -35 -3 -35 -8z"/>
<path d="M288 3893 c6 -2 18 -2 25 0 6 3 1 5 -13 5 -14 0 -19 -2 -12 -5z"/>
<path d="M10000 3880 c0 -5 18 -10 40 -10 22 0 40 5 40 10 0 6 -18 10 -40 10
-22 0 -40 -4 -40 -10z"/>
<path d="M9888 3853 c6 -2 18 -2 25 0 6 3 1 5 -13 5 -14 0 -19 -2 -12 -5z"/>
<path d="M9979 3849 c-11 -7 -11 -9 4 -9 9 0 17 -7 17 -15 0 -8 9 -15 20 -15
11 0 20 5 20 10 0 6 -4 10 -9 10 -5 0 -16 6 -24 14 -9 9 -19 11 -28 5z"/>
<path d="M10008 3783 c6 -2 18 -2 25 0 6 3 1 5 -13 5 -14 0 -19 -2 -12 -5z"/>
<path d="M10138 3783 c7 -3 16 -2 19 1 4 3 -2 6 -13 5 -11 0 -14 -3 -6 -6z"/>
<path d="M9475 2510 c3 -5 8 -10 11 -10 2 0 4 5 4 10 0 6 -5 10 -11 10 -5 0
-7 -4 -4 -10z"/>
<path d="M9750 2000 c-8 -5 -12 -12 -9 -15 4 -3 12 1 19 10 14 17 11 19 -10 5z"/>
<path d="M9938 2003 c7 -3 16 -2 19 1 4 3 -2 6 -13 5 -11 0 -14 -3 -6 -6z"/>
</g>
</svg>
